<?xml version="1.0" encoding="UTF-8"?>
<svg xmlns="http://www.w3.org/2000/svg" xmlns:xlink="http://www.w3.org/1999/xlink" width="4881pt" height="1534pt" viewBox="0 0 4881 1534" version="1.1">
<g id="surface1">
<path style=" stroke:none;fill-rule:nonzero;fill:rgb(14.892578%,12.939453%,22.75238%);fill-opacity:1;" d="M 4880.050781 1051.632813 L 0.179688 1051.632813 L 0.179688 0.128906 L 4880.050781 0.128906 L 4880.050781 1051.632813 "/>
<path style="fill:none;stroke-width:108.485;stroke-linecap:butt;stroke-linejoin:miter;stroke:rgb(100%,100%,100%);stroke-opacity:1;stroke-miterlimit:22.9256;" d="M 1827.96875 11695.898438 L 1827.96875 11860.703125 C 1983.476563 11847.8125 2134.296875 11843.984375 2277.1875 11843.984375 C 2420.273438 11843.984375 2559.179688 11847.8125 2691.914063 11860.703125 C 2823.007813 11555.585938 2945.3125 11287.382813 3053.984375 11058.59375 L 3913.4375 9273.007813 L 4689.335938 10912.382813 C 4898.515625 11355.78125 5037.96875 11670.703125 5110.625 11860.703125 C 5270.742188 11847.8125 5408.4375 11843.984375 5524.179688 11843.984375 C 5626.835938 11843.984375 5792.34375 11847.8125 6018.984375 11860.703125 L 6018.984375 11695.898438 C 5835.976563 11693.203125 5726.25 11686.601563 5687.226563 11670.703125 C 5648.242188 11658.28125 5622.1875 11642.695313 5604.882813 11618.789063 C 5587.382813 11588.007813 5571.796875 11514.609375 5569.882813 11398.398438 C 5569.882813 11372.617188 5565.703125 11154.882813 5561.054688 10755.78125 L 5561.054688 9706.757813 C 5561.054688 9497.265625 5561.054688 9299.492188 5569.882813 9103.046875 C 5574.53125 8961.171875 5587.382813 8876.5625 5602.1875 8848.007813 C 5622.1875 8819.609375 5652.265625 8802.265625 5687.226563 8788.945313 C 5726.25 8776.09375 5835.976563 8769.804688 6018.984375 8765.15625 L 6018.984375 8617.1875 C 5709.6875 8630.351563 5493.203125 8634.21875 5371.953125 8634.21875 C 5269.414063 8634.21875 5042.304688 8630.351563 4695.742188 8617.1875 L 4695.742188 8765.15625 C 4874.726563 8769.804688 4985.039063 8776.09375 5027.8125 8788.945313 C 5063.945313 8802.265625 5090.15625 8819.609375 5105.390625 8840.976563 C 5123.320313 8872.226563 5136.054688 8944.609375 5136.054688 9061.445313 C 5138.4375 9093.789063 5142.34375 9311.757813 5146.523438 9712.851563 L 5146.523438 11386.015625 L 4366.601563 9737.382813 C 4244.296875 9482.890625 4148.164063 9274.53125 4083.4375 9118.28125 C 4031.09375 9004.84375 3954.296875 8824.414063 3851.992188 8576.054688 L 3765 8576.054688 C 3745.742188 8634.21875 3728.398438 8680.117188 3712.226563 8715.390625 L 3560.664063 9044.453125 L 2476.914063 11311.09375 L 2476.914063 9712.851563 C 2476.914063 9506.40625 2480.546875 9301.5625 2491.445313 9103.046875 C 2498.632813 8963.398438 2509.101563 8876.5625 2526.40625 8848.007813 C 2546.328125 8819.609375 2574.570313 8802.265625 2613.75 8788.945313 C 2653.320313 8776.09375 2762.148438 8769.804688 2942.890625 8765.15625 L 2942.890625 8617.1875 L 2390.976563 8634.21875 L 1827.96875 8617.1875 L 1827.96875 8765.15625 C 2001.367188 8769.804688 2107.8125 8776.09375 2147.148438 8788.945313 C 2186.601563 8802.265625 2210.976563 8819.609375 2225.742188 8840.976563 C 2243.007813 8872.226563 2256.289063 8944.609375 2261.054688 9061.445313 C 2262.695313 9093.789063 2262.695313 9307.421875 2269.609375 9706.757813 L 2269.609375 10755.78125 C 2269.609375 10961.015625 2266.914063 11163.59375 2261.054688 11359.414063 C 2256.289063 11501.40625 2247.773438 11588.007813 2225.742188 11613.984375 C 2210.976563 11640.585938 2181.5625 11658.28125 2147.148438 11670.703125 C 2107.8125 11686.601563 2001.367188 11693.203125 1827.96875 11695.898438 Z M 1827.96875 11695.898438 " transform="matrix(0.1,0,0,-0.1,0,1534)"/>
<path style=" stroke:none;fill-rule:nonzero;fill:rgb(100%,100%,100%);fill-opacity:1;" d="M 182.796875 364.410156 L 182.796875 347.941406 C 198.34375 349.21875 213.425781 349.609375 227.71875 349.609375 C 242.023438 349.609375 255.914063 349.21875 269.1875 347.941406 C 282.296875 378.449219 294.53125 405.261719 305.398438 428.140625 L 391.34375 606.699219 L 468.933594 442.761719 C 489.847656 398.421875 503.796875 366.929688 511.058594 347.941406 C 527.070313 349.21875 540.839844 349.609375 552.414063 349.609375 C 562.679688 349.609375 579.230469 349.21875 601.898438 347.941406 L 601.898438 364.410156 C 583.597656 364.679688 572.621094 365.339844 568.722656 366.929688 C 564.820313 368.171875 562.21875 369.730469 560.484375 372.121094 C 558.738281 375.199219 557.179688 382.539063 556.988281 394.160156 C 556.988281 396.75 556.566406 418.511719 556.101563 458.429688 L 556.101563 563.328125 C 556.101563 584.273438 556.101563 604.050781 556.988281 623.695313 C 557.453125 637.882813 558.738281 646.34375 560.214844 649.199219 C 562.21875 652.042969 565.222656 653.773438 568.722656 655.105469 C 572.621094 656.390625 583.597656 657.019531 601.898438 657.484375 L 601.898438 672.28125 C 570.964844 670.964844 549.316406 670.578125 537.191406 670.578125 C 526.9375 670.578125 504.230469 670.964844 469.574219 672.28125 L 469.574219 657.484375 C 487.46875 657.019531 498.5 656.390625 502.78125 655.105469 C 506.394531 653.773438 509.011719 652.042969 510.539063 649.902344 C 512.332031 646.777344 513.601563 639.539063 513.601563 627.855469 C 513.839844 624.621094 514.230469 602.824219 514.648438 562.714844 L 514.648438 395.398438 L 436.65625 560.261719 C 424.425781 585.710938 414.816406 606.546875 408.339844 622.175781 C 403.109375 633.515625 395.425781 651.5625 385.199219 676.394531 L 376.496094 676.394531 C 374.570313 670.578125 372.835938 665.988281 371.222656 662.460938 L 356.0625 629.554688 L 247.691406 402.890625 L 247.691406 562.714844 C 247.691406 583.363281 248.050781 603.84375 249.140625 623.695313 C 249.859375 637.660156 250.90625 646.34375 252.636719 649.199219 C 254.628906 652.042969 257.453125 653.773438 261.371094 655.105469 C 265.332031 656.390625 276.214844 657.019531 294.289063 657.484375 L 294.289063 672.28125 L 239.09375 670.578125 L 182.796875 672.28125 L 182.796875 657.484375 C 200.136719 657.019531 210.78125 656.390625 214.710938 655.105469 C 218.660156 653.773438 221.09375 652.042969 222.574219 649.902344 C 224.296875 646.777344 225.625 639.539063 226.101563 627.855469 C 226.265625 624.621094 226.265625 603.257813 226.957031 563.328125 L 226.957031 458.429688 C 226.957031 437.898438 226.6875 417.640625 226.101563 398.058594 C 225.625 383.859375 224.773438 375.199219 222.574219 372.601563 C 221.09375 369.941406 218.152344 368.171875 214.710938 366.929688 C 210.78125 365.339844 200.136719 364.679688 182.796875 364.410156 "/>
<path style="fill:none;stroke-width:108.485;stroke-linecap:butt;stroke-linejoin:miter;stroke:rgb(100%,100%,100%);stroke-opacity:1;stroke-miterlimit:22.9256;" d="M 6858.242188 11091.210938 C 6951.40625 11295.898438 7088.90625 11450.585938 7269.84375 11557.1875 C 7453.242188 11666.015625 7669.414063 11720.898438 7909.0625 11720.898438 C 8078.4375 11720.898438 8231.71875 11693.203125 8377.148438 11642.695313 C 8525.625 11594.414063 8641.171875 11529.609375 8731.171875 11453.007813 C 8822.34375 11378.984375 8902.304688 11291.484375 8966.132813 11187.5 C 9031.328125 11089.414063 9086.640625 10978.28125 9124.804688 10851.015625 C 9188.632813 10648.398438 9218.984375 10426.992188 9218.984375 10186.015625 C 9218.984375 9902.695313 9175.3125 9652.734375 9090.859375 9436.992188 C 8998.75 9220.859375 8863.632813 9052.65625 8680 8934.726563 C 8500.195313 8815 8283.984375 8754.101563 8039.414063 8754.101563 C 7863.203125 8754.101563 7704.53125 8784.921875 7556.09375 8840.976563 C 7410.039063 8902.148438 7276.25 8991.953125 7159.648438 9116.796875 C 7043.789063 9240.898438 6947.8125 9391.015625 6873.085938 9576.328125 C 6827.890625 9683.085938 6789.804688 9811.796875 6761.992188 9957.734375 C 6733.75 10107.5 6718.632813 10256.796875 6718.632813 10397.1875 C 6718.632813 10657.5 6764.960938 10888.59375 6858.242188 11091.210938 Z M 6356.875 9569.921875 C 6430.976563 9349.414063 6537.421875 9164.179688 6681.71875 9013.789063 C 6823.125 8859.0625 6999.21875 8745.703125 7206.40625 8669.0625 C 7413.632813 8590.585938 7638.789063 8548.867188 7874.101563 8548.867188 C 8404.0625 8548.867188 8835.664063 8721.367188 9180.078125 9061.445313 C 9524.6875 9402.8125 9693.476563 9827.5 9693.476563 10339.296875 C 9693.476563 10498.515625 9677.03125 10646.40625 9643.984375 10786.09375 C 9611.25 10925.117188 9565.507813 11047.304688 9507.1875 11150.117188 C 9432.421875 11287.382813 9328.242188 11415.78125 9195.195313 11533.398438 C 9063.90625 11646.914063 8896.015625 11742.8125 8689.609375 11808.515625 C 8486.5625 11879.804688 8257.382813 11917.5 8006.523438 11917.5 C 7732.539063 11917.5 7490.078125 11875.3125 7280.898438 11793.007813 C 7069.453125 11708.515625 6879.765625 11588.007813 6714.414063 11424.609375 C 6544.296875 11262.695313 6428.59375 11078.710938 6355.507813 10877.617188 C 6283.007813 10674.414063 6245.351563 10451.601563 6245.351563 10213.203125 C 6245.351563 10001.210938 6283.007813 9782.8125 6356.875 9569.921875 Z M 6356.875 9569.921875 " transform="matrix(0.1,0,0,-0.1,0,1534)"/>
<path style=" stroke:none;fill-rule:nonzero;fill:rgb(100%,100%,100%);fill-opacity:1;" d="M 685.820313 424.878906 C 695.136719 404.410156 708.890625 388.941406 726.980469 378.28125 C 745.324219 367.398438 766.9375 361.910156 790.90625 361.910156 C 807.839844 361.910156 823.167969 364.679688 837.714844 369.730469 C 852.558594 374.558594 864.113281 381.039063 873.113281 388.699219 C 882.230469 396.101563 890.230469 404.851563 896.613281 415.25 C 903.132813 425.058594 908.664063 436.171875 912.476563 448.898438 C 918.859375 469.160156 921.894531 491.300781 921.894531 515.398438 C 921.894531 543.730469 917.527344 568.726563 909.085938 590.300781 C 899.871094 611.914063 886.359375 628.734375 868 640.527344 C 850.015625 652.503906 828.398438 658.589844 803.941406 658.589844 C 786.316406 658.589844 770.453125 655.507813 755.609375 649.902344 C 741 643.789063 727.621094 634.804688 715.964844 622.320313 C 704.378906 609.910156 694.777344 594.898438 687.304688 576.367188 C 682.789063 565.691406 678.976563 552.820313 676.195313 538.226563 C 673.371094 523.25 671.859375 508.320313 671.859375 494.28125 C 671.859375 468.25 676.496094 445.140625 685.820313 424.878906 Z M 635.683594 577.007813 C 643.09375 599.058594 653.738281 617.582031 668.167969 632.621094 C 682.3125 648.09375 699.921875 659.429688 720.640625 667.097656 C 741.363281 674.941406 763.875 679.117188 787.40625 679.117188 C 840.40625 679.117188 883.5625 661.863281 918.007813 627.855469 C 952.464844 593.71875 969.347656 551.25 969.347656 500.070313 C 969.347656 484.148438 967.703125 469.359375 964.394531 455.390625 C 961.121094 441.488281 956.550781 429.269531 950.71875 418.988281 C 943.238281 405.261719 932.820313 392.421875 919.515625 380.660156 C 906.390625 369.308594 889.601563 359.71875 868.957031 353.148438 C 848.652344 346.019531 825.738281 342.25 800.652344 342.25 C 773.253906 342.25 749.003906 346.46875 728.085938 354.699219 C 706.945313 363.148438 687.972656 375.199219 671.441406 391.539063 C 654.429688 407.730469 642.855469 426.140625 635.550781 446.238281 C 628.296875 466.558594 624.53125 488.839844 624.53125 512.679688 C 624.53125 533.878906 628.296875 555.71875 635.683594 577.007813 "/>
<path style="fill:none;stroke-width:108.485;stroke-linecap:butt;stroke-linejoin:miter;stroke:rgb(100%,100%,100%);stroke-opacity:1;stroke-miterlimit:22.9256;" d="M 9926.796875 8617.1875 L 9926.796875 8765.15625 C 10088.789063 8767.148438 10195.78125 8780.585938 10247.8125 8802.265625 C 10269.804688 8809.570313 10280.703125 8826.328125 10291.289063 8840.976563 C 10306.210938 8874.609375 10319.882813 8953.828125 10325 9083.476563 C 10328.59375 9284.375 10333.28125 9456.601563 10333.28125 9600.429688 L 10333.28125 11459.609375 C 10333.28125 11507.382813 10328.59375 11540.3125 10325 11555.585938 C 10313.085938 11581.09375 10284.414063 11616.71875 10239.414063 11655.585938 C 10213.007813 11679.882813 10182.617188 11693.203125 10145.390625 11703.90625 C 10112.8125 11708.515625 10032.1875 11708.515625 9909.921875 11710.585938 L 9909.921875 11860.703125 C 10173.59375 11847.8125 10339.492188 11843.984375 10405.507813 11843.984375 C 10523.007813 11843.984375 10635.585938 11847.8125 10751.484375 11860.703125 C 10877.890625 11693.203125 10971.40625 11568.398438 11033.710938 11485.898438 L 11499.492188 10907.890625 L 12177.5 10077.5 C 12393.28125 9814.0625 12567.304688 9605.976563 12700.3125 9453.75 C 12780.703125 9353.789063 12852.382813 9274.53125 12912.1875 9216.953125 L 12912.1875 10877.617188 C 12912.1875 11027.8125 12909.804688 11200.117188 12902.8125 11400.390625 C 12898.710938 11526.601563 12887.8125 11603.984375 12870.703125 11636.09375 C 12861.015625 11655.585938 12841.992188 11669.296875 12819.882813 11679.882813 C 12772.304688 11701.992188 12665.195313 11708.515625 12504.492188 11710.585938 L 12504.492188 11860.703125 C 12682.304688 11847.8125 12863.28125 11843.984375 13049.101563 11843.984375 C 13221.015625 11843.984375 13378.007813 11847.8125 13517.890625 11860.703125 L 13517.890625 11710.585938 C 13361.015625 11708.515625 13254.101563 11701.992188 13206.484375 11679.882813 C 13186.484375 11669.296875 13171.210938 11655.585938 13160 11636.09375 C 13144.609375 11603.984375 13131.40625 11524.882813 13127.695313 11394.609375 C 13123.515625 11193.90625 13119.101563 11021.484375 13119.101563 10875.585938 L 13119.101563 9778.632813 C 13119.101563 9556.953125 13123.515625 9140.585938 13127.695313 8534.0625 L 12896.796875 8608.828125 L 12837.890625 8621.054688 C 12829.21875 8621.054688 12819.882813 8627.460938 12816.289063 8634.21875 C 12802.695313 8641.09375 12772.304688 8671.875 12728.90625 8726.054688 C 12602.382813 8869.84375 12511.210938 8978.984375 12451.09375 9052.65625 L 12157.617188 9428.203125 L 10542.304688 11386.015625 L 10542.304688 9613.59375 C 10542.304688 9463.476563 10544.101563 9288.710938 10550.78125 9078.515625 C 10557.382813 8953.828125 10566.09375 8874.609375 10580.703125 8845.625 C 10592.304688 8824.414063 10608.007813 8809.570313 10629.609375 8794.765625 C 10681.796875 8776.09375 10788.984375 8767.148438 10947.890625 8765.15625 L 10947.890625 8617.1875 C 10816.40625 8630.351563 10668.28125 8634.21875 10502.8125 8634.21875 C 10328.59375 8634.21875 10132.382813 8630.351563 9926.796875 8617.1875 Z M 9926.796875 8617.1875 " transform="matrix(0.1,0,0,-0.1,0,1534)"/>
<path style=" stroke:none;fill-rule:nonzero;fill:rgb(100%,100%,100%);fill-opacity:1;" d="M 992.679688 672.28125 L 992.679688 657.484375 C 1008.871094 657.289063 1019.570313 655.941406 1024.78125 653.773438 C 1026.980469 653.046875 1028.070313 651.371094 1029.128906 649.902344 C 1030.621094 646.539063 1031.988281 638.617188 1032.488281 625.652344 C 1032.851563 605.5625 1033.328125 588.339844 1033.328125 573.960938 L 1033.328125 388.039063 C 1033.328125 383.261719 1032.851563 379.96875 1032.488281 378.449219 C 1031.308594 375.890625 1028.441406 372.328125 1023.941406 368.441406 C 1021.300781 366.011719 1018.261719 364.679688 1014.539063 363.609375 C 1011.28125 363.148438 1003.21875 363.148438 990.992188 362.949219 L 990.992188 347.941406 C 1017.359375 349.21875 1033.941406 349.609375 1040.550781 349.609375 C 1052.300781 349.609375 1063.558594 349.21875 1075.148438 347.941406 C 1087.789063 364.679688 1097.128906 377.160156 1103.371094 385.410156 L 1149.949219 443.210938 L 1217.75 526.261719 C 1239.320313 552.59375 1256.71875 573.402344 1270.03125 588.625 C 1278.070313 598.625 1285.230469 606.546875 1291.210938 612.304688 L 1291.210938 446.238281 C 1291.210938 431.21875 1290.980469 413.988281 1290.269531 393.960938 C 1289.859375 381.339844 1288.78125 373.601563 1287.070313 370.390625 C 1286.101563 368.441406 1284.199219 367.070313 1281.988281 366.011719 C 1277.230469 363.800781 1266.511719 363.148438 1250.449219 362.949219 L 1250.449219 347.941406 C 1268.230469 349.21875 1286.320313 349.609375 1304.910156 349.609375 C 1322.101563 349.609375 1337.800781 349.21875 1351.789063 347.941406 L 1351.789063 362.949219 C 1336.089844 363.148438 1325.398438 363.800781 1320.648438 366.011719 C 1318.640625 367.070313 1317.121094 368.441406 1316 370.390625 C 1314.460938 373.601563 1313.140625 381.511719 1312.769531 394.539063 C 1312.351563 414.609375 1311.898438 431.851563 1311.898438 446.441406 L 1311.898438 556.136719 C 1311.898438 578.308594 1312.351563 619.941406 1312.769531 680.597656 L 1289.671875 673.117188 L 1283.789063 671.894531 C 1282.921875 671.894531 1281.988281 671.253906 1281.628906 670.578125 C 1280.269531 669.890625 1277.230469 666.8125 1272.878906 661.398438 C 1260.238281 647.015625 1251.121094 636.105469 1245.109375 628.734375 L 1215.761719 591.183594 L 1054.230469 395.398438 L 1054.230469 572.644531 C 1054.230469 587.652344 1054.410156 605.128906 1055.078125 626.148438 C 1055.738281 638.617188 1056.609375 646.539063 1058.070313 649.4375 C 1059.21875 651.5625 1060.800781 653.046875 1062.960938 654.523438 C 1068.179688 656.390625 1078.890625 657.289063 1094.789063 657.484375 L 1094.789063 672.28125 C 1081.628906 670.964844 1066.828125 670.578125 1050.28125 670.578125 C 1032.851563 670.578125 1013.230469 670.964844 992.679688 672.28125 "/>
<path style="fill:none;stroke-width:108.485;stroke-linecap:butt;stroke-linejoin:miter;stroke:rgb(100%,100%,100%);stroke-opacity:1;stroke-miterlimit:22.9256;" d="M 13941.015625 11107.1875 L 13790 11107.1875 C 13787.617188 11470.78125 13778.90625 11720.898438 13766.71875 11860.703125 C 13932.1875 11854.21875 14193.789063 11845.703125 14546.09375 11836.015625 C 14832.382813 11830.585938 15024.6875 11825.585938 15122.304688 11825.585938 C 15222.8125 11825.585938 15464.492188 11830.585938 15841.40625 11843.984375 C 16111.71875 11847.8125 16310.195313 11854.21875 16437.304688 11860.703125 C 16417.382813 11690.507813 16403.984375 11439.609375 16401.71875 11107.1875 L 16253.59375 11107.1875 L 16234.101563 11326.796875 C 16221.09375 11459.609375 16216.484375 11533.398438 16207.8125 11553.28125 C 16203.59375 11571.09375 16198.90625 11581.09375 16190.585938 11592.8125 C 16181.71875 11599.804688 16168.789063 11603.984375 16153.789063 11608.203125 C 16132.1875 11616.71875 16053.007813 11618.789063 15923.789063 11630 C 15795.703125 11636.09375 15693.085938 11640.585938 15615.390625 11640.585938 L 15337.890625 11640.585938 C 15322.617188 11492.890625 15313.984375 11295.898438 15313.984375 11047.304688 L 15313.984375 9712.851563 C 15313.984375 9506.40625 15316.09375 9301.5625 15322.617188 9103.046875 C 15327.304688 8963.398438 15337.890625 8876.5625 15353.085938 8848.007813 C 15370.78125 8819.609375 15397.109375 8802.265625 15431.914063 8788.945313 C 15473.515625 8776.09375 15579.804688 8769.804688 15754.21875 8765.15625 L 15754.21875 8617.1875 C 15486.40625 8621.054688 15280.78125 8627.460938 15146.71875 8627.460938 C 15087.695313 8627.460938 14851.71875 8621.054688 14439.882813 8617.1875 L 14439.882813 8765.15625 C 14620.507813 8769.804688 14729.882813 8776.09375 14771.40625 8788.945313 C 14812.695313 8802.265625 14838.398438 8819.609375 14851.71875 8840.976563 C 14874.296875 8872.226563 14884.804688 8944.609375 14891.289063 9066.132813 C 14891.289063 9093.789063 14891.289063 9311.757813 14898.203125 9712.851563 L 14898.203125 11043.085938 C 14898.203125 11107.1875 14898.203125 11176.015625 14893.28125 11251.71875 L 14891.289063 11640.585938 L 14548.984375 11640.585938 C 14350.507813 11640.585938 14198.007813 11631.914063 14082.304688 11616.71875 C 14047.5 11612.382813 14023.085938 11603.984375 14010.78125 11588.007813 C 13993.007813 11557.1875 13978.398438 11479.414063 13967.304688 11335.507813 Z M 13941.015625 11107.1875 " transform="matrix(0.1,0,0,-0.1,0,1534)"/>
<path style=" stroke:none;fill-rule:nonzero;fill:rgb(100%,100%,100%);fill-opacity:1;" d="M 1394.101563 423.28125 L 1379 423.28125 C 1378.761719 386.921875 1377.890625 361.910156 1376.671875 347.941406 C 1393.21875 348.578125 1419.371094 349.429688 1454.609375 350.398438 C 1483.238281 350.941406 1502.46875 351.449219 1512.230469 351.449219 C 1522.28125 351.449219 1546.449219 350.941406 1584.140625 349.609375 C 1611.171875 349.21875 1631.019531 348.578125 1643.730469 347.941406 C 1641.738281 364.949219 1640.390625 390.039063 1640.171875 423.28125 L 1625.351563 423.28125 L 1623.410156 401.320313 C 1622.109375 388.039063 1621.648438 380.660156 1620.78125 378.671875 C 1620.359375 376.890625 1619.878906 375.890625 1619.058594 374.71875 C 1618.160156 374.019531 1616.878906 373.601563 1615.378906 373.179688 C 1613.21875 372.328125 1605.289063 372.121094 1592.371094 371 C 1579.558594 370.390625 1569.308594 369.941406 1561.53125 369.941406 L 1533.789063 369.941406 C 1532.261719 384.710938 1531.398438 404.410156 1531.398438 429.269531 L 1531.398438 562.714844 C 1531.398438 583.363281 1531.609375 603.84375 1532.261719 623.695313 C 1532.71875 637.660156 1533.789063 646.34375 1535.308594 649.199219 C 1537.078125 652.042969 1539.710938 653.773438 1543.191406 655.105469 C 1547.351563 656.390625 1557.980469 657.019531 1575.421875 657.484375 L 1575.421875 672.28125 C 1548.628906 671.894531 1528.078125 671.253906 1514.660156 671.253906 C 1508.761719 671.253906 1485.171875 671.894531 1443.980469 672.28125 L 1443.980469 657.484375 C 1462.039063 657.019531 1472.980469 656.390625 1477.140625 655.105469 C 1481.269531 653.773438 1483.839844 652.042969 1485.171875 649.902344 C 1487.429688 646.777344 1488.480469 639.539063 1489.128906 627.390625 C 1489.128906 624.621094 1489.128906 602.824219 1489.820313 562.714844 L 1489.820313 429.691406 C 1489.820313 423.28125 1489.820313 416.398438 1489.328125 408.828125 L 1489.128906 369.941406 L 1454.898438 369.941406 C 1435.039063 369.941406 1419.800781 370.808594 1408.230469 372.328125 C 1404.738281 372.769531 1402.300781 373.601563 1401.078125 375.199219 C 1399.300781 378.28125 1397.828125 386.058594 1396.730469 400.449219 L 1394.101563 423.28125 "/>
<path style="fill:none;stroke-width:108.485;stroke-linecap:butt;stroke-linejoin:miter;stroke:rgb(100%,100%,100%);stroke-opacity:1;stroke-miterlimit:22.9256;" d="M 16692.1875 8617.1875 L 16692.1875 8765.15625 C 16855.390625 8767.148438 16961.71875 8780.585938 17017.109375 8802.265625 C 17036.601563 8809.570313 17055.898438 8826.328125 17063.789063 8840.976563 C 17079.804688 8874.609375 17091.09375 8953.828125 17093.085938 9083.476563 C 17095.507813 9286.640625 17096.992188 9456.601563 17096.992188 9602.695313 L 17096.992188 10766.289063 C 17096.992188 10975.898438 17095.507813 11176.015625 17086.71875 11372.617188 C 17086.71875 11516.992188 17075.507813 11603.984375 17055.898438 11630 C 17036.601563 11655.585938 17011.992188 11678.007813 16973.398438 11690.507813 C 16935.507813 11703.90625 16830.507813 11708.515625 16653.007813 11710.585938 L 16653.007813 11860.703125 L 17302.304688 11845.703125 L 17986.601563 11858.28125 C 18313.59375 11864.609375 18553.085938 11864.609375 18701.289063 11864.609375 C 18849.21875 11864.609375 18991.40625 11858.28125 19124.804688 11838.515625 C 19099.101563 11753.515625 19085.195313 11679.882813 19076.796875 11616.71875 C 19072.1875 11599.804688 19057.109375 11441.914063 19033.007813 11139.101563 L 18885.3125 11139.101563 C 18885.3125 11295.898438 18876.484375 11439.609375 18851.71875 11568.398438 C 18768.59375 11603.984375 18677.5 11628.203125 18575.703125 11640.585938 C 18409.882813 11660.507813 18239.296875 11670.703125 18069.804688 11670.703125 C 18034.101563 11670.703125 17949.296875 11669.296875 17825.195313 11664.414063 C 17698.90625 11662.382813 17607.617188 11658.28125 17555.390625 11655.585938 C 17546.015625 11483.515625 17541.601563 11324.882813 17539.609375 11176.015625 L 17528.515625 10395.585938 C 17709.414063 10386.992188 17875 10374.492188 18024.101563 10374.492188 C 18204.21875 10374.492188 18361.210938 10386.992188 18487.890625 10404.609375 C 18540 10409.21875 18568.710938 10419.414063 18583.59375 10436.796875 C 18598.90625 10457.1875 18609.882813 10522.382813 18621.601563 10627.109375 L 18636.015625 10786.09375 L 18767.304688 10786.09375 L 18767.304688 10744.6875 L 18758.710938 10269.101563 L 18767.304688 9740.078125 L 18616.210938 9740.078125 L 18609.882813 9894.023438 C 18608.085938 10009.296875 18594.609375 10077.5 18579.882813 10105.703125 C 18564.101563 10130.117188 18527.382813 10152.109375 18479.101563 10164.492188 C 18389.6875 10176.992188 18222.617188 10188.398438 17969.609375 10188.398438 C 17864.804688 10188.398438 17720.3125 10184.609375 17528.515625 10173.59375 C 17520.507813 10020.78125 17516.601563 9794.179688 17516.601563 9491.171875 C 17516.601563 9208.007813 17520.507813 8991.953125 17528.515625 8845.625 C 17748.59375 8834.570313 17995.507813 8830.820313 18270.117188 8830.820313 C 18461.914063 8830.820313 18598.90625 8834.570313 18682.109375 8848.007813 C 18764.492188 8859.0625 18843.59375 8880.625 18910.703125 8911.09375 C 18928.515625 8953.828125 18945.703125 9022.304688 18967.1875 9103.046875 C 19000.3125 9240.898438 19020 9340.742188 19033.007813 9411.328125 L 19181.796875 9411.328125 C 19143.789063 9103.046875 19124.804688 8852.03125 19124.804688 8647.65625 C 18995.585938 8627.460938 18836.914063 8617.1875 18649.492188 8617.1875 L 17288.515625 8634.21875 C 17266.914063 8634.21875 17071.210938 8630.351563 16692.1875 8617.1875 Z M 16692.1875 8617.1875 " transform="matrix(0.1,0,0,-0.1,0,1534)"/>
<path style=" stroke:none;fill-rule:nonzero;fill:rgb(100%,100%,100%);fill-opacity:1;" d="M 1669.21875 672.28125 L 1669.21875 657.484375 C 1685.539063 657.289063 1696.171875 655.941406 1701.699219 653.773438 C 1703.660156 653.046875 1705.589844 651.371094 1706.378906 649.902344 C 1707.980469 646.539063 1709.109375 638.617188 1709.308594 625.652344 C 1709.550781 605.335938 1709.699219 588.339844 1709.699219 573.734375 L 1709.699219 457.371094 C 1709.699219 436.410156 1709.550781 416.398438 1708.671875 396.75 C 1708.671875 382.300781 1707.550781 373.601563 1705.589844 371 C 1703.660156 368.441406 1701.191406 366.199219 1697.339844 364.949219 C 1693.550781 363.609375 1683.050781 363.148438 1665.300781 362.949219 L 1665.300781 347.941406 L 1730.230469 349.429688 L 1798.648438 348.171875 C 1831.359375 347.539063 1855.308594 347.539063 1870.121094 347.539063 C 1884.910156 347.539063 1899.140625 348.171875 1912.480469 350.148438 C 1909.910156 358.648438 1908.511719 366.011719 1907.679688 372.328125 C 1907.21875 374.019531 1905.710938 389.808594 1903.300781 420.101563 L 1888.53125 420.101563 C 1888.53125 404.410156 1887.648438 390.039063 1885.160156 377.160156 C 1876.851563 373.601563 1867.75 371.179688 1857.570313 369.941406 C 1840.988281 367.949219 1823.929688 366.929688 1806.980469 366.929688 C 1803.410156 366.929688 1794.929688 367.070313 1782.519531 367.558594 C 1769.890625 367.761719 1760.75 368.171875 1755.539063 368.441406 C 1754.601563 385.648438 1754.160156 401.511719 1753.949219 416.398438 L 1752.851563 494.441406 C 1770.929688 495.308594 1787.5 496.550781 1802.398438 496.550781 C 1820.421875 496.550781 1836.121094 495.308594 1848.789063 493.539063 C 1853.988281 493.078125 1856.871094 492.058594 1858.359375 490.320313 C 1859.890625 488.28125 1860.988281 481.761719 1862.160156 471.300781 L 1863.589844 455.390625 L 1876.730469 455.390625 L 1876.730469 459.53125 L 1875.859375 507.089844 L 1876.730469 559.992188 L 1861.621094 559.992188 L 1860.988281 544.597656 C 1860.808594 533.070313 1859.449219 526.261719 1857.988281 523.429688 C 1856.398438 520.988281 1852.738281 518.800781 1847.910156 517.550781 C 1838.96875 516.300781 1822.261719 515.160156 1796.960938 515.160156 C 1786.480469 515.160156 1772.03125 515.539063 1752.851563 516.640625 C 1752.050781 531.921875 1751.660156 554.582031 1751.660156 584.886719 C 1751.660156 613.199219 1752.050781 634.804688 1752.851563 649.4375 C 1774.851563 650.546875 1799.550781 650.917969 1827.011719 650.917969 C 1846.191406 650.917969 1859.890625 650.546875 1868.210938 649.199219 C 1876.449219 648.09375 1884.359375 645.941406 1891.070313 642.890625 C 1892.851563 638.617188 1894.570313 631.769531 1896.71875 623.695313 C 1900.03125 609.910156 1902 599.925781 1903.300781 592.871094 L 1918.171875 592.871094 C 1914.378906 623.695313 1912.480469 648.796875 1912.480469 669.234375 C 1899.558594 671.253906 1883.679688 672.28125 1864.949219 672.28125 L 1728.851563 670.578125 C 1726.679688 670.578125 1707.109375 670.964844 1669.21875 672.28125 "/>
<path style="fill:none;stroke-width:108.485;stroke-linecap:butt;stroke-linejoin:miter;stroke:rgb(100%,100%,100%);stroke-opacity:1;stroke-miterlimit:22.9256;" d="M 23719.296875 9022.304688 L 23630.507813 8806.601563 C 23453.90625 8719.140625 23281.71875 8653.828125 23109.804688 8612.578125 C 22937.890625 8573.359375 22754.296875 8548.867188 22553.203125 8548.867188 C 22318.203125 8548.867188 22100.117188 8584.726563 21897.304688 8641.09375 C 21696.796875 8697.617188 21517.5 8782.34375 21366.09375 8894.21875 C 21216.71875 9004.84375 21093.515625 9127.109375 20995 9264.492188 C 20899.101563 9402.8125 20824.882813 9549.765625 20777.1875 9709.101563 C 20729.414063 9868.476563 20700.507813 10045 20700.507813 10236.914063 C 20700.507813 10720.78125 20873.203125 11121.992188 21206.601563 11441.914063 C 21549.21875 11755.585938 22008.90625 11917.5 22593.984375 11917.5 C 22732.617188 11917.5 22861.210938 11908.515625 22977.8125 11891.289063 C 23096.210938 11877.695313 23240.3125 11845.703125 23407.5 11801.796875 C 23576.210938 11755.585938 23681.210938 11729.296875 23719.296875 11723.59375 C 23685.195313 11640.585938 23658.789063 11557.1875 23646.210938 11479.414063 C 23619.414063 11344.414063 23605.117188 11197.8125 23593.398438 11025.507813 L 23453.90625 11025.507813 L 23451.914063 11295.898438 C 23436.289063 11444.296875 23353.789063 11555.585938 23200.703125 11630 C 23053.085938 11703.90625 22834.882813 11736.71875 22542.617188 11736.71875 C 22324.882813 11732.109375 22143.515625 11706.289063 21992.617188 11655.585938 C 21844.414063 11603.984375 21709.882813 11520.703125 21593.90625 11407.304688 C 21479.21875 11294.414063 21384.882813 11150.117188 21310.78125 10978.28125 C 21239.101563 10805.3125 21201.914063 10585.507813 21200.703125 10323.515625 C 21200.703125 9863.671875 21338.984375 9496.25 21623.59375 9216.953125 C 21901.992188 8939.0625 22277.109375 8794.765625 22738.398438 8794.765625 C 22943.710938 8794.765625 23140.195313 8826.328125 23318.789063 8882.382813 C 23441.09375 8919.726563 23558.59375 8983.125 23681.210938 9068.046875 Z M 23719.296875 9022.304688 " transform="matrix(0.1,0,0,-0.1,0,1534)"/>
<path style=" stroke:none;fill-rule:nonzero;fill:rgb(100%,100%,100%);fill-opacity:1;" d="M 2371.929688 631.769531 L 2363.050781 653.339844 C 2345.390625 662.089844 2328.171875 668.617188 2310.980469 672.746094 C 2293.789063 676.664063 2275.429688 679.117188 2255.320313 679.117188 C 2231.820313 679.117188 2210.011719 675.527344 2189.71875 669.890625 C 2169.671875 664.238281 2151.75 655.765625 2136.601563 644.578125 C 2121.671875 633.515625 2109.351563 621.289063 2099.5 607.550781 C 2089.898438 593.71875 2082.488281 579.027344 2077.71875 563.089844 C 2072.941406 547.152344 2070.050781 529.5 2070.050781 510.320313 C 2070.050781 461.921875 2087.320313 421.800781 2120.660156 389.808594 C 2154.921875 358.441406 2200.890625 342.25 2259.398438 342.25 C 2273.261719 342.25 2286.121094 343.148438 2297.78125 344.871094 C 2309.621094 346.230469 2324.03125 349.429688 2340.738281 353.820313 C 2357.621094 358.441406 2368.121094 361.070313 2371.929688 361.640625 C 2368.519531 369.941406 2365.871094 378.28125 2364.621094 386.058594 C 2361.941406 399.558594 2360.5 414.21875 2359.339844 431.460938 L 2345.390625 431.460938 L 2345.179688 404.410156 C 2343.628906 389.570313 2335.378906 378.449219 2320.070313 371 C 2305.308594 363.609375 2283.480469 360.328125 2254.261719 360.328125 C 2232.488281 360.789063 2214.339844 363.371094 2199.261719 368.441406 C 2184.441406 373.601563 2170.988281 381.929688 2159.390625 393.269531 C 2147.921875 404.558594 2138.488281 418.988281 2131.078125 436.171875 C 2123.910156 453.46875 2120.191406 475.449219 2120.070313 501.648438 C 2120.070313 547.632813 2133.898438 584.378906 2162.359375 612.304688 C 2190.199219 640.097656 2227.710938 654.523438 2273.839844 654.523438 C 2294.371094 654.523438 2314.011719 651.371094 2331.878906 645.761719 C 2344.109375 642.027344 2355.859375 635.6875 2368.121094 627.195313 L 2371.929688 631.769531 "/>
<path style="fill:none;stroke-width:108.485;stroke-linecap:butt;stroke-linejoin:miter;stroke:rgb(100%,100%,100%);stroke-opacity:1;stroke-miterlimit:22.9256;" d="M 25561.992188 11268.085938 L 26134.6875 9887.890625 L 24979.882813 9887.890625 Z M 24413.710938 8634.21875 C 24539.296875 8634.21875 24731.09375 8630.351563 24990.585938 8617.1875 L 24990.585938 8765.15625 C 24846.992188 8767.148438 24747.890625 8771.289063 24692.695313 8784.921875 C 24657.382813 8793.710938 24635.117188 8806.601563 24615.703125 8826.328125 C 24602.5 8840.976563 24596.40625 8856.09375 24596.40625 8878.515625 C 24596.40625 8928.59375 24617.890625 9004.84375 24663.398438 9109.335938 L 24906.484375 9696.523438 L 26225.78125 9696.523438 L 26511.210938 9001.523438 C 26527.890625 8944.609375 26538.203125 8902.148438 26538.203125 8869.84375 C 26538.203125 8845.625 26531.992188 8830.820313 26519.101563 8813.476563 C 26507.617188 8794.765625 26484.101563 8788.945313 26448.984375 8782.34375 C 26411.484375 8771.289063 26307.382813 8769.804688 26134.6875 8765.15625 L 26134.6875 8617.1875 L 26868.007813 8634.21875 C 26961.289063 8634.21875 27129.492188 8630.351563 27365.195313 8617.1875 L 27365.195313 8765.15625 C 27246.71875 8767.148438 27165.78125 8776.09375 27135.78125 8793.710938 C 27098.984375 8809.570313 27068.90625 8840.976563 27038.28125 8897.96875 C 26987.617188 8991.953125 26880 9225.625 26723.789063 9595.195313 L 25750.195313 11885 L 25605.390625 11885 C 25398.90625 11398.398438 25262.695313 11081.210938 25204.414063 10940.78125 L 24635.117188 9652.734375 C 24462.890625 9279.492188 24365.390625 9068.046875 24338.398438 9009.609375 C 24290.78125 8913.476563 24253.515625 8852.03125 24230.390625 8827.96875 C 24203.710938 8806.601563 24177.109375 8788.945313 24147.304688 8782.34375 C 24116.09375 8769.804688 24042.382813 8767.148438 23922.617188 8765.15625 L 23922.617188 8617.1875 C 24096.992188 8630.351563 24260.78125 8634.21875 24413.710938 8634.21875 Z M 24413.710938 8634.21875 " transform="matrix(0.1,0,0,-0.1,0,1534)"/>
<path style=" stroke:none;fill-rule:nonzero;fill:rgb(100%,100%,100%);fill-opacity:1;" d="M 2556.199219 407.191406 L 2613.46875 545.210938 L 2497.988281 545.210938 Z M 2441.371094 670.578125 C 2453.929688 670.578125 2473.109375 670.964844 2499.058594 672.28125 L 2499.058594 657.484375 C 2484.691406 657.289063 2474.78125 656.871094 2469.269531 655.507813 C 2465.738281 654.628906 2463.511719 653.339844 2461.570313 651.371094 C 2460.25 649.902344 2459.640625 648.394531 2459.640625 646.148438 C 2459.640625 641.140625 2461.789063 633.515625 2466.328125 623.066406 L 2490.640625 564.347656 L 2622.578125 564.347656 L 2651.121094 633.847656 C 2652.789063 639.539063 2653.820313 643.789063 2653.820313 647.015625 C 2653.820313 649.4375 2653.191406 650.917969 2651.910156 652.652344 C 2650.761719 654.523438 2648.410156 655.105469 2644.898438 655.765625 C 2641.140625 656.871094 2630.738281 657.019531 2613.46875 657.484375 L 2613.46875 672.28125 L 2686.800781 670.578125 C 2696.128906 670.578125 2712.949219 670.964844 2736.519531 672.28125 L 2736.519531 657.484375 C 2724.671875 657.289063 2716.578125 656.390625 2713.570313 654.628906 C 2709.898438 653.046875 2706.890625 649.902344 2703.828125 644.203125 C 2698.761719 634.804688 2688 611.4375 2672.378906 574.480469 L 2575.019531 345.5 L 2560.539063 345.5 C 2539.890625 394.160156 2526.269531 425.878906 2520.441406 439.921875 L 2463.511719 568.726563 C 2446.289063 606.054688 2436.539063 627.195313 2433.839844 633.039063 C 2429.078125 642.652344 2425.339844 648.796875 2423.039063 651.203125 C 2420.371094 653.339844 2417.710938 655.105469 2414.730469 655.765625 C 2411.609375 657.019531 2404.238281 657.289063 2392.261719 657.484375 L 2392.261719 672.28125 C 2409.691406 670.964844 2426.078125 670.578125 2441.371094 670.578125 "/>
<path style="fill:none;stroke-width:108.485;stroke-linecap:butt;stroke-linejoin:miter;stroke:rgb(100%,100%,100%);stroke-opacity:1;stroke-miterlimit:22.9256;" d="M 27597.382813 11710.585938 L 27597.382813 11860.703125 C 27656.796875 11858.28125 27744.101563 11858.28125 27865.898438 11854.21875 L 28295 11843.984375 C 28382.382813 11843.984375 28517.695313 11845.703125 28694.6875 11854.21875 C 28928.085938 11862.8125 29065.195313 11864.609375 29101.992188 11864.609375 C 29388.710938 11864.609375 29599.21875 11843.984375 29728.398438 11791.09375 C 29858.515625 11736.71875 29961.40625 11655.585938 30036.914063 11535.78125 C 30109.6875 11420.585938 30140.390625 11295.898438 30140.390625 11158.203125 C 30140.390625 11027.8125 30109.6875 10900.898438 30041.40625 10773.085938 C 29976.09375 10648.398438 29875.898438 10543.90625 29754.21875 10458.59375 C 29623.28125 10374.492188 29461.71875 10312.8125 29255.390625 10265.390625 C 29294.492188 10213.203125 29383.789063 10091.210938 29518.59375 9909.84375 L 30087.304688 9153.125 C 30247.109375 8941.445313 30340.3125 8824.414063 30368.515625 8794.765625 C 30384.101563 8788.945313 30395.898438 8782.34375 30409.804688 8776.09375 C 30434.609375 8769.804688 30481.796875 8765.15625 30558.710938 8765.15625 L 30558.710938 8617.1875 C 30447.617188 8630.351563 30347.382813 8634.21875 30264.101563 8634.21875 C 30173.007813 8634.21875 30067.695313 8630.351563 29943.90625 8617.1875 C 29841.796875 8730.195313 29678.515625 8953.828125 29448.515625 9288.710938 C 29318.984375 9469.023438 29207.1875 9624.921875 29110.78125 9744.101563 C 28951.71875 9951.328125 28798.515625 10133.710938 28655.3125 10299.804688 L 28677.109375 10369.492188 C 28753.789063 10363.203125 28809.6875 10363.203125 28851.71875 10363.203125 C 29119.296875 10363.203125 29322.1875 10429.101563 29461.71875 10556.914063 C 29599.21875 10690 29667.382813 10860.195313 29667.382813 11075.78125 C 29667.382813 11262.695313 29607.890625 11413.515625 29490.507813 11523.28125 C 29365.703125 11636.09375 29188.085938 11688.90625 28948.007813 11688.90625 C 28792.1875 11688.90625 28642.695313 11664.414063 28498.59375 11616.71875 C 28489.804688 11533.398438 28485.3125 11457.109375 28485.3125 11386.015625 C 28480.78125 11360.78125 28478.28125 11141.09375 28472.695313 10720.78125 L 28472.695313 9709.101563 C 28472.695313 9503.984375 28472.695313 9301.5625 28480.78125 9103.046875 C 28480.78125 8963.398438 28489.804688 8876.5625 28506.796875 8848.007813 C 28526.992188 8819.609375 28552.617188 8802.265625 28594.882813 8788.945313 C 28632.890625 8776.09375 28736.09375 8769.804688 28912.109375 8765.15625 L 28912.109375 8617.1875 C 28701.210938 8630.351563 28506.796875 8634.21875 28328.007813 8634.21875 C 28182.695313 8634.21875 27937.5 8630.351563 27597.382813 8617.1875 L 27597.382813 8765.15625 C 27772.1875 8769.804688 27879.21875 8776.09375 27914.492188 8788.945313 C 27955.898438 8802.265625 27979.101563 8819.609375 27997.1875 8840.976563 C 28017.382813 8872.226563 28027.8125 8944.609375 28030.703125 9061.445313 C 28031.484375 9093.789063 28036.40625 9311.757813 28040.195313 9709.101563 L 28040.195313 10766.289063 C 28040.195313 10975.898438 28036.40625 11176.015625 28030.703125 11372.617188 C 28027.8125 11516.992188 28017.382813 11603.984375 27997.1875 11630 C 27979.101563 11655.585938 27953.710938 11678.007813 27914.492188 11688.90625 C 27879.21875 11703.90625 27772.1875 11708.515625 27597.382813 11710.585938 Z M 27597.382813 11710.585938 " transform="matrix(0.1,0,0,-0.1,0,1534)"/>
<path style=" stroke:none;fill-rule:nonzero;fill:rgb(100%,100%,100%);fill-opacity:1;" d="M 2759.738281 362.949219 L 2759.738281 347.941406 C 2765.671875 348.171875 2774.398438 348.171875 2786.589844 348.578125 L 2829.5 349.609375 C 2838.238281 349.609375 2851.769531 349.429688 2869.46875 348.578125 C 2892.808594 347.71875 2906.519531 347.539063 2910.191406 347.539063 C 2938.871094 347.539063 2959.921875 349.609375 2972.828125 354.890625 C 2985.839844 360.328125 2996.140625 368.441406 3003.691406 380.421875 C 3010.96875 391.949219 3014.039063 404.410156 3014.039063 418.179688 C 3014.039063 431.21875 3010.96875 443.910156 3004.140625 456.691406 C 2997.609375 469.160156 2987.589844 479.609375 2975.421875 488.148438 C 2962.320313 496.550781 2946.160156 502.71875 2925.53125 507.460938 C 2929.449219 512.679688 2938.371094 524.878906 2951.859375 543.015625 L 3008.730469 618.6875 C 3024.710938 639.855469 3034.019531 651.5625 3036.851563 654.523438 C 3038.410156 655.105469 3039.589844 655.765625 3040.96875 656.390625 C 3043.460938 657.019531 3048.179688 657.484375 3055.859375 657.484375 L 3055.859375 672.28125 C 3044.761719 670.964844 3034.738281 670.578125 3026.410156 670.578125 C 3017.289063 670.578125 3006.769531 670.964844 2994.390625 672.28125 C 2984.179688 660.980469 2967.839844 638.617188 2944.851563 605.128906 C 2931.898438 587.097656 2920.71875 571.507813 2911.078125 559.589844 C 2895.171875 538.871094 2879.851563 520.628906 2865.519531 504.019531 L 2867.710938 497.058594 C 2875.371094 497.679688 2880.96875 497.679688 2885.171875 497.679688 C 2911.929688 497.679688 2932.21875 491.089844 2946.160156 478.308594 C 2959.921875 465 2966.738281 447.980469 2966.738281 426.421875 C 2966.738281 407.730469 2960.78125 392.648438 2949.050781 381.671875 C 2936.558594 370.390625 2918.808594 365.109375 2894.800781 365.109375 C 2879.21875 365.109375 2864.269531 367.558594 2849.859375 372.328125 C 2848.96875 380.660156 2848.53125 388.300781 2848.53125 395.398438 C 2848.078125 397.929688 2847.820313 419.890625 2847.269531 461.921875 L 2847.269531 563.089844 C 2847.269531 583.601563 2847.269531 603.84375 2848.078125 623.695313 C 2848.078125 637.660156 2848.96875 646.34375 2850.679688 649.199219 C 2852.699219 652.042969 2855.261719 653.773438 2859.488281 655.105469 C 2863.28125 656.390625 2873.609375 657.019531 2891.210938 657.484375 L 2891.210938 672.28125 C 2870.109375 670.964844 2850.679688 670.578125 2832.800781 670.578125 C 2818.269531 670.578125 2793.75 670.964844 2759.738281 672.28125 L 2759.738281 657.484375 C 2777.21875 657.019531 2787.921875 656.390625 2791.449219 655.105469 C 2795.589844 653.773438 2797.910156 652.042969 2799.71875 649.902344 C 2801.730469 646.777344 2802.78125 639.539063 2803.070313 627.855469 C 2803.148438 624.621094 2803.628906 602.824219 2804.019531 563.089844 L 2804.019531 457.371094 C 2804.019531 436.410156 2803.628906 416.398438 2803.070313 396.75 C 2802.78125 382.300781 2801.730469 373.601563 2799.71875 371 C 2797.910156 368.441406 2795.371094 366.199219 2791.449219 365.109375 C 2787.921875 363.609375 2777.21875 363.148438 2759.738281 362.949219 "/>
<path style="fill:none;stroke-width:108.485;stroke-linecap:butt;stroke-linejoin:miter;stroke:rgb(100%,100%,100%);stroke-opacity:1;stroke-miterlimit:22.9256;" d="M 30869.882813 8617.1875 L 30869.882813 8738.710938 C 30965.898438 8782.34375 31031.210938 8817.070313 31056.015625 8840.976563 C 31070.78125 8856.09375 31084.21875 8872.226563 31090.3125 8894.21875 C 31102.890625 8939.0625 31112.109375 9029.179688 31118.203125 9166.132813 C 31123.398438 9377.5 31125.117188 9501.445313 31125.117188 9539.414063 L 31125.117188 10766.289063 C 31125.117188 10973.203125 31123.398438 11176.015625 31118.203125 11372.617188 C 31112.109375 11516.992188 31102.890625 11603.984375 31084.21875 11630 C 31070.78125 11655.585938 31039.882813 11678.007813 31005 11688.90625 C 30967.695313 11703.90625 30861.015625 11708.515625 30689.492188 11710.585938 L 30689.492188 11860.703125 C 31050.78125 11847.8125 31273.007813 11843.984375 31363.398438 11843.984375 C 31453.085938 11843.984375 31672.617188 11847.8125 32011.914063 11860.703125 L 32011.914063 11710.585938 C 31830 11708.515625 31721.601563 11703.90625 31683.515625 11690.507813 C 31643.59375 11678.007813 31616.210938 11658.28125 31598.28125 11636.09375 C 31580.3125 11603.984375 31572.109375 11531.992188 31566.914063 11413.515625 C 31566.914063 11386.015625 31563.515625 11167.617188 31558.984375 10766.289063 L 31558.984375 9236.25 C 31558.984375 9078.515625 31563.515625 8945.898438 31566.914063 8845.625 C 31742.5 8834.570313 31912.1875 8830.820313 32082.1875 8830.820313 C 32505 8830.820313 32808.28125 8856.09375 32980.703125 8913.476563 C 32997.5 8953.828125 33015.117188 9009.609375 33030.507813 9071.054688 L 33121.601563 9444.335938 L 33272.1875 9444.335938 C 33241.71875 9220.859375 33204.6875 8953.828125 33174.296875 8649.492188 C 33110.898438 8634.21875 33063.203125 8630.351563 33023.90625 8625.273438 C 32950.195313 8621.054688 32824.882813 8617.1875 32662.109375 8617.1875 L 31312.304688 8634.21875 C 31168.007813 8634.21875 31022.304688 8630.351563 30869.882813 8617.1875 Z M 30869.882813 8617.1875 " transform="matrix(0.1,0,0,-0.1,0,1534)"/>
<path style=" stroke:none;fill-rule:nonzero;fill:rgb(100%,100%,100%);fill-opacity:1;" d="M 3086.988281 672.28125 L 3086.988281 660.132813 C 3096.589844 655.765625 3103.121094 652.292969 3105.601563 649.902344 C 3107.078125 648.394531 3108.410156 646.777344 3109.03125 644.578125 C 3110.28125 640.097656 3111.210938 631.082031 3111.820313 617.386719 C 3112.328125 596.25 3112.511719 583.855469 3112.511719 580.058594 L 3112.511719 457.371094 C 3112.511719 436.679688 3112.328125 416.398438 3111.820313 396.75 C 3111.210938 382.300781 3110.28125 373.601563 3108.410156 371 C 3107.078125 368.441406 3103.988281 366.199219 3100.5 365.109375 C 3096.769531 363.609375 3086.089844 363.148438 3068.949219 362.949219 L 3068.949219 347.941406 C 3105.078125 349.21875 3127.289063 349.609375 3136.339844 349.609375 C 3145.308594 349.609375 3167.261719 349.21875 3201.191406 347.941406 L 3201.191406 362.949219 C 3183 363.148438 3172.160156 363.609375 3168.351563 364.949219 C 3164.351563 366.199219 3161.621094 368.171875 3159.820313 370.390625 C 3158.03125 373.601563 3157.210938 380.808594 3156.691406 392.648438 C 3156.691406 395.398438 3156.339844 417.238281 3155.898438 457.371094 L 3155.898438 610.375 C 3155.898438 626.148438 3156.339844 639.410156 3156.691406 649.4375 C 3174.25 650.546875 3191.21875 650.917969 3208.21875 650.917969 C 3250.5 650.917969 3280.828125 648.394531 3298.058594 642.652344 C 3299.75 638.617188 3301.5 633.039063 3303.050781 626.894531 L 3312.160156 589.566406 L 3327.21875 589.566406 C 3324.160156 611.914063 3320.46875 638.617188 3317.429688 669.054688 C 3311.089844 670.578125 3306.320313 670.964844 3302.390625 671.472656 C 3295.011719 671.894531 3282.488281 672.28125 3266.210938 672.28125 L 3131.230469 670.578125 C 3116.800781 670.578125 3102.230469 670.964844 3086.988281 672.28125 "/>
<path style="fill:none;stroke-width:108.485;stroke-linecap:butt;stroke-linejoin:miter;stroke:rgb(100%,100%,100%);stroke-opacity:1;stroke-miterlimit:22.9256;" d="M 34153.203125 11091.210938 C 34244.101563 11295.898438 34386.09375 11450.585938 34569.6875 11557.1875 C 34750.390625 11666.015625 34963.984375 11720.898438 35208.085938 11720.898438 C 35376.09375 11720.898438 35528.710938 11693.203125 35677.109375 11642.695313 C 35818.59375 11594.414063 35940.898438 11529.609375 36030.117188 11453.007813 C 36118.789063 11378.984375 36198.085938 11291.484375 36265 11187.5 C 36330.78125 11089.414063 36381.289063 10978.28125 36422.617188 10851.015625 C 36484.882813 10648.398438 36518.710938 10426.992188 36518.710938 10186.015625 C 36518.710938 9902.695313 36475 9652.734375 36385.585938 9436.992188 C 36296.210938 9220.859375 36160.78125 9052.65625 35979.609375 8934.726563 C 35796.992188 8815 35583.007813 8754.101563 35336.601563 8754.101563 C 35157.8125 8754.101563 35001.09375 8784.921875 34852.5 8840.976563 C 34708.984375 8902.148438 34576.015625 8991.953125 34455.78125 9116.796875 C 34340 9240.898438 34244.101563 9391.015625 34170.703125 9576.328125 C 34126.601563 9683.085938 34089.882813 9811.796875 34061.09375 9957.734375 C 34030.898438 10107.5 34016.09375 10256.796875 34016.09375 10397.1875 C 34016.09375 10657.5 34061.09375 10888.59375 34153.203125 11091.210938 Z M 33651.601563 9569.921875 C 33725.507813 9349.414063 33835.195313 9164.179688 33976.601563 9013.789063 C 34121.796875 8859.0625 34296.992188 8745.703125 34501.992188 8669.0625 C 34711.015625 8590.585938 34933.710938 8548.867188 35170.390625 8548.867188 C 35696.09375 8548.867188 36132.5 8721.367188 36476.796875 9061.445313 C 36820.507813 9402.8125 36992.304688 9827.5 36992.304688 10339.296875 C 36992.304688 10498.515625 36976.015625 10646.40625 36943.007813 10786.09375 C 36908.710938 10925.117188 36862.695313 11047.304688 36803.007813 11150.117188 C 36728.984375 11287.382813 36625.3125 11415.78125 36490 11533.398438 C 36361.09375 11646.914063 36193.515625 11742.8125 35988.085938 11808.515625 C 35783.515625 11879.804688 35552.5 11917.5 35304.21875 11917.5 C 35029.6875 11917.5 34786.992188 11875.3125 34577.8125 11793.007813 C 34366.210938 11708.515625 34173.984375 11588.007813 34008.59375 11424.609375 C 33841.71875 11262.695313 33723.398438 11078.710938 33649.6875 10877.617188 C 33577.1875 10674.414063 33542.304688 10451.601563 33542.304688 10213.203125 C 33542.304688 10001.210938 33579.492188 9782.8125 33651.601563 9569.921875 Z M 33651.601563 9569.921875 " transform="matrix(0.1,0,0,-0.1,0,1534)"/>
<path style=" stroke:none;fill-rule:nonzero;fill:rgb(100%,100%,100%);fill-opacity:1;" d="M 3415.308594 424.878906 C 3424.410156 404.410156 3438.601563 388.941406 3456.960938 378.28125 C 3475.039063 367.398438 3496.398438 361.910156 3520.800781 361.910156 C 3537.601563 361.910156 3552.871094 364.679688 3567.710938 369.730469 C 3581.859375 374.558594 3594.089844 381.039063 3603.011719 388.699219 C 3611.871094 396.101563 3619.808594 404.851563 3626.5 415.25 C 3633.078125 425.058594 3638.128906 436.171875 3642.25 448.898438 C 3648.488281 469.160156 3651.871094 491.300781 3651.871094 515.398438 C 3651.871094 543.730469 3647.5 568.726563 3638.558594 590.300781 C 3629.621094 611.914063 3616.070313 628.734375 3597.960938 640.527344 C 3579.699219 652.503906 3558.289063 658.589844 3533.660156 658.589844 C 3515.78125 658.589844 3500.109375 655.507813 3485.25 649.902344 C 3470.898438 643.789063 3457.589844 634.804688 3445.570313 622.320313 C 3434 609.910156 3424.410156 594.898438 3417.058594 576.367188 C 3412.648438 565.691406 3408.988281 552.820313 3406.109375 538.226563 C 3403.089844 523.25 3401.609375 508.320313 3401.609375 494.28125 C 3401.609375 468.25 3406.109375 445.140625 3415.308594 424.878906 Z M 3365.160156 577.007813 C 3372.550781 599.058594 3383.519531 617.582031 3397.660156 632.621094 C 3412.179688 648.09375 3429.699219 659.429688 3450.199219 667.097656 C 3471.089844 674.941406 3493.371094 679.117188 3517.039063 679.117188 C 3569.609375 679.117188 3613.25 661.863281 3647.679688 627.855469 C 3682.050781 593.71875 3699.230469 551.25 3699.230469 500.070313 C 3699.230469 484.148438 3697.589844 469.359375 3694.289063 455.390625 C 3690.871094 441.488281 3686.261719 429.269531 3680.300781 418.988281 C 3672.898438 405.261719 3662.519531 392.421875 3648.988281 380.660156 C 3636.109375 369.308594 3619.351563 359.71875 3598.808594 353.148438 C 3578.339844 346.019531 3555.238281 342.25 3530.410156 342.25 C 3502.96875 342.25 3478.699219 346.46875 3457.769531 354.699219 C 3436.621094 363.148438 3417.390625 375.199219 3400.859375 391.539063 C 3384.160156 407.730469 3372.328125 426.140625 3364.960938 446.238281 C 3357.710938 466.558594 3354.230469 488.839844 3354.230469 512.679688 C 3354.230469 533.878906 3357.949219 555.71875 3365.160156 577.007813 "/>
<path style="fill:none;stroke-width:86.7883;stroke-linecap:butt;stroke-linejoin:miter;stroke:rgb(100%,100%,100%);stroke-opacity:1;stroke-miterlimit:22.9256;" d="M 46648.90625 8833.203125 L 41337.890625 12865.117188 C 41107.109375 13048.59375 40954.101563 12795.78125 40954.101563 12795.78125 L 37845.898438 8863.828125 C 37479.492188 8405.78125 38007.109375 8456.015625 38007.109375 8456.015625 L 46604.492188 8456.015625 C 47134.21875 8456.015625 46648.90625 8833.203125 46648.90625 8833.203125 Z M 46470.390625 8608.828125 L 38046.40625 8608.828125 C 38046.40625 8608.828125 37854.804688 8605.546875 37982.8125 8782.34375 L 41076.914063 12691.40625 C 41076.914063 12691.40625 41154.492188 12804.21875 41277.5 12713.59375 L 46495.390625 8743.046875 C 46495.390625 8743.046875 46665.703125 8614.335938 46470.390625 8608.828125 Z M 46470.390625 8608.828125 " transform="matrix(0.1,0,0,-0.1,0,1534)"/>
<path style=" stroke:none;fill-rule:nonzero;fill:rgb(99.609375%,99.609375%,99.609375%);fill-opacity:1;" d="M 4664.890625 650.679688 L 4133.78125 247.488281 C 4110.699219 229.140625 4095.410156 254.421875 4095.410156 254.421875 L 3784.589844 647.617188 C 3747.949219 693.421875 3800.699219 688.398438 3800.699219 688.398438 L 4660.449219 688.398438 C 4713.410156 688.398438 4664.890625 650.679688 4664.890625 650.679688 Z M 4647.039063 673.117188 L 3804.628906 673.117188 C 3804.628906 673.117188 3785.46875 673.449219 3798.28125 655.765625 L 4107.679688 264.859375 C 4107.679688 264.859375 4115.441406 253.578125 4127.738281 262.640625 L 4649.53125 659.695313 C 4649.53125 659.695313 4666.558594 672.566406 4647.039063 673.117188 "/>
<path style="fill:none;stroke-width:43.3956;stroke-linecap:butt;stroke-linejoin:miter;stroke:rgb(100%,100%,100%);stroke-opacity:1;stroke-miterlimit:22.9256;" d="M 39094.21875 9883.4375 C 39094.21875 9883.4375 40151.210938 10531.40625 40356.992188 10591.914063 C 40444.296875 10615.78125 40498.515625 10585.507813 40470 10472.304688 C 40444.296875 10361.289063 40288.90625 10066.992188 40228.007813 9971.015625 C 40197.617188 9920.507813 40141.015625 9835.46875 40213.203125 9842.304688 C 40270.195313 9850.859375 40914.6875 10493.789063 41050.3125 10600.3125 C 41140.117188 10670.390625 41244.882813 10786.09375 41277.5 10607.304688 C 41285.703125 10570.390625 41150.703125 10308.59375 41150.703125 10308.59375 C 41150.703125 10308.59375 41096.015625 10234.609375 41194.804688 10269.101563 C 41294.21875 10308.59375 41325.3125 10388.90625 41492.8125 10487.382813 C 41578.710938 10539.414063 41681.914063 10493.789063 41641.09375 10423.984375 C 41606.71875 10359.101563 41400.78125 9922.734375 41270 9726.445313 C 41222.890625 9641.523438 41176.289063 9608.515625 41225 9585.3125 C 41225 9585.3125 41371.484375 9654.6875 41418.515625 9585.3125 C 41418.515625 9585.3125 41623.789063 10188.398438 42519.296875 10561.71875 C 42689.609375 10630.78125 43103.90625 10764.882813 43543.90625 10652.109375 C 43629.101563 10630.78125 43543.90625 10607.304688 43475.78125 10607.304688 C 43409.21875 10607.304688 43011.914063 10553.28125 42571.210938 10363.203125 C 42473.515625 10321.484375 41909.414063 9990.039063 41634.492188 9367.34375 C 41560.78125 9190.664063 41656.210938 9130.976563 41782.304688 9166.132813 C 41881.601563 9202.148438 42251.484375 9340.742188 42571.210938 9602.695313 C 42667.8125 9681.015625 42693.984375 9626.601563 42640.78125 9556.953125 C 42585.117188 9489.335938 42305 9202.148438 41859.804688 8918.125 C 41741.71875 8845.625 41285.703125 8634.21875 41225 8963.398438 C 41194.804688 9124.570313 41283.007813 9367.34375 41316.210938 9443.28125 C 41316.210938 9443.28125 41176.289063 9397.109375 40988.789063 9211.757813 C 40914.6875 9133.984375 40813.28125 9042.304688 40734.414063 8970.3125 C 40706.289063 8944.609375 40572.890625 8919.726563 40629.882813 9056.71875 C 40668.59375 9154.921875 40836.289063 9456.601563 40974.296875 9663.515625 C 41047.8125 9772.1875 41011.484375 9839.023438 40918.984375 9748.554688 C 40832.109375 9654.6875 40409.492188 9183.320313 40365.195313 9130.976563 C 40322.382813 9078.515625 40160.585938 9039.804688 40204.296875 9153.125 C 40253.007813 9266.445313 40594.882813 9757.695313 40634.492188 9798.203125 C 40668.59375 9844.257813 40677.1875 9944.101563 40548.710938 9816.328125 C 40446.601563 9712.851563 40068.789063 9320.585938 39876.992188 9162.851563 C 39803.203125 9093.789063 39504.296875 8806.601563 39452.617188 8749.921875 C 39398.085938 8695.351563 39256.09375 8675.46875 39347.617188 8833.203125 C 39398.085938 8928.59375 39598.515625 9262.539063 39665.78125 9382.148438 C 39734.101563 9506.40625 39947.382813 9913.90625 39955.585938 9997.03125 C 39962.695313 10081.484375 40006.289063 10176.992188 39894.296875 10133.710938 C 39788.398438 10091.210938 39598.515625 10030.117188 39459.101563 9944.101563 C 39349.882813 9879.0625 39188.90625 9782.8125 39132.304688 9763.398438 C 39079.882813 9740.078125 39005.898438 9844.257813 39094.21875 9883.4375 Z M 39094.21875 9883.4375 " transform="matrix(0.1,0,0,-0.1,0,1534)"/>
<path style=" stroke:none;fill-rule:nonzero;fill:rgb(99.609375%,99.609375%,99.609375%);fill-opacity:1;" d="M 3909.421875 545.65625 C 3909.421875 545.65625 4015.109375 480.859375 4035.699219 474.808594 C 4044.429688 472.421875 4049.839844 475.449219 4047 486.769531 C 4044.429688 497.871094 4028.878906 527.300781 4022.800781 536.898438 C 4019.761719 541.949219 4014.101563 550.457031 4021.320313 549.769531 C 4027.011719 548.914063 4091.460938 484.621094 4105.019531 473.96875 C 4114.011719 466.960938 4124.488281 455.390625 4127.738281 473.269531 C 4128.558594 476.960938 4115.070313 503.140625 4115.070313 503.140625 C 4115.070313 503.140625 4109.601563 510.539063 4119.480469 507.089844 C 4129.421875 503.140625 4132.53125 495.121094 4149.269531 485.261719 C 4157.871094 480.058594 4168.179688 484.621094 4164.101563 491.601563 C 4160.660156 498.089844 4140.078125 541.726563 4127 561.355469 C 4122.289063 569.847656 4117.621094 573.152344 4122.5 575.46875 C 4122.5 575.46875 4137.148438 568.535156 4141.839844 575.46875 C 4141.839844 575.46875 4162.378906 515.160156 4251.929688 477.828125 C 4268.960938 470.921875 4310.390625 457.511719 4354.378906 468.789063 C 4362.910156 470.921875 4354.378906 473.269531 4347.578125 473.269531 C 4340.910156 473.269531 4301.191406 478.671875 4257.121094 497.679688 C 4247.339844 501.851563 4190.941406 535 4163.441406 597.265625 C 4156.078125 614.9375 4165.609375 620.902344 4178.230469 617.386719 C 4188.160156 613.785156 4225.140625 599.925781 4257.121094 573.734375 C 4266.78125 565.898438 4269.398438 571.34375 4264.070313 578.308594 C 4258.511719 585.066406 4230.488281 613.785156 4185.980469 642.1875 C 4174.160156 649.4375 4128.558594 670.578125 4122.5 637.660156 C 4119.480469 621.546875 4128.300781 597.265625 4131.621094 589.671875 C 4131.621094 589.671875 4117.621094 594.289063 4098.878906 612.828125 C 4091.460938 620.601563 4081.328125 629.769531 4073.429688 636.972656 C 4070.621094 639.539063 4057.289063 642.027344 4062.980469 628.332031 C 4066.851563 618.507813 4083.628906 588.339844 4097.429688 567.648438 C 4104.78125 556.78125 4101.148438 550.101563 4091.898438 559.144531 C 4083.210938 568.535156 4040.949219 615.667969 4036.519531 620.902344 C 4032.230469 626.148438 4016.058594 630.019531 4020.421875 618.6875 C 4025.289063 607.355469 4059.488281 558.230469 4063.449219 554.179688 C 4066.851563 549.574219 4067.71875 539.589844 4054.859375 552.371094 C 4044.648438 562.714844 4006.871094 601.941406 3987.699219 617.71875 C 3980.308594 624.621094 3950.429688 653.339844 3945.25 659.007813 C 3939.808594 664.464844 3925.609375 666.453125 3934.761719 650.679688 C 3939.808594 641.140625 3959.839844 607.746094 3966.570313 595.785156 C 3973.398438 583.363281 3994.738281 542.609375 3995.558594 534.296875 C 3996.261719 525.851563 4000.628906 516.300781 3989.429688 520.628906 C 3978.828125 524.878906 3959.839844 530.988281 3945.910156 539.589844 C 3934.980469 546.09375 3918.878906 555.71875 3913.230469 557.664063 C 3907.980469 559.992188 3900.578125 549.574219 3909.421875 545.65625 "/>
<path style=" stroke:none;fill-rule:nonzero;fill:rgb(99.609375%,99.609375%,99.609375%);fill-opacity:1;" d="M 547.816406 1299.042969 L 529.085938 1299.042969 L 521.730469 1253.507813 L 521.730469 1213.105469 L 555.660156 1213.105469 L 555.625 1253.644531 L 547.816406 1299.042969 "/>
<path style=" stroke:none;fill-rule:nonzero;fill:rgb(99.609375%,99.609375%,99.609375%);fill-opacity:1;" d="M 323.667969 1224.433594 L 356.8125 1224.433594 L 356.550781 1455.152344 L 323.511719 1455.152344 L 323.667969 1224.433594 "/>
<path style=" stroke:none;fill-rule:nonzero;fill:rgb(99.609375%,99.609375%,99.609375%);fill-opacity:1;" d="M 382.46875 1327.316406 L 439.007813 1271.75 L 438.851563 1303.308594 L 486.992188 1303.308594 L 486.992188 1330.390625 L 438.851563 1330.390625 L 438.839844 1404.546875 C 438.839844 1422.023438 446.105469 1430.757813 460.464844 1430.757813 C 471.300781 1430.757813 482.660156 1427.191406 494.609375 1420.066406 L 494.609375 1448.164063 C 483.078125 1454.664063 470.550781 1457.808594 456.882813 1457.808594 C 443.113281 1457.808594 431.671875 1453.824219 422.53125 1445.789063 C 419.578125 1443.273438 417.21875 1440.683594 415.3125 1437.609375 C 413.585938 1434.535156 411.945313 1430.585938 410.699219 1425.6875 C 409.429688 1420.796875 408.761719 1411.433594 408.761719 1397.632813 L 408.882813 1330.390625 L 382.46875 1330.246094 L 382.46875 1327.316406 "/>
<path style=" stroke:none;fill-rule:nonzero;fill:rgb(99.609375%,99.609375%,99.609375%);fill-opacity:1;" d="M 579.199219 1444.460938 L 579.289063 1412.097656 C 587.710938 1417.898438 596.429688 1422.859375 605.21875 1426.425781 C 614.214844 1430.132813 621.589844 1432.050781 627.585938 1432.050781 C 633.890625 1432.050781 639.34375 1430.480469 643.78125 1427.546875 C 648.339844 1424.332031 650.652344 1420.695313 650.652344 1416.359375 C 650.652344 1411.890625 649.089844 1408.324219 646.230469 1405.421875 C 643.328125 1402.449219 637.109375 1398.257813 627.375 1392.703125 C 607.960938 1381.835938 595.242188 1372.675781 589.371094 1364.921875 C 583.273438 1357.371094 580.320313 1348.984375 580.320313 1339.933594 C 580.351563 1328.328125 584.84375 1318.785156 593.929688 1311.484375 C 603.015625 1304.074219 614.761719 1300.230469 629.015625 1300.339844 C 643.992188 1300.339844 659.144531 1304.496094 674.871094 1312.988281 L 674.640625 1342.765625 C 656.902344 1331.929688 642.347656 1326.476563 631.09375 1326.476563 C 625.210938 1326.476563 620.46875 1327.804688 616.855469 1330.246094 C 613.359375 1332.699219 611.503906 1335.980469 611.503906 1339.933594 C 611.503906 1343.464844 613.1875 1346.886719 616.367188 1350.101563 C 619.617188 1353.355469 625.242188 1357.234375 633.4375 1361.847656 L 644.21875 1367.851563 C 669.519531 1382.148438 682.203125 1398.046875 682.136719 1415.382813 C 682.136719 1427.894531 677.246094 1438.0625 667.566406 1445.996094 C 657.777344 1454.003906 645.234375 1457.949219 629.941406 1457.949219 C 620.925781 1457.949219 612.886719 1457.003906 605.828125 1455.082031 C 598.789063 1453.195313 589.859375 1449.558594 579.199219 1444.460938 "/>
<path style=" stroke:none;fill-rule:nonzero;fill:rgb(99.609375%,99.609375%,99.609375%);fill-opacity:1;" d="M 824.910156 1327.664063 L 881.492188 1272.242188 L 881.492188 1303.554688 L 929.511719 1303.621094 L 929.511719 1330.671875 L 881.492188 1330.671875 L 881.402344 1405.039063 C 881.402344 1422.511719 888.601563 1431.039063 903.035156 1431.109375 C 913.800781 1431.109375 925.195313 1427.617188 937.160156 1420.414063 L 937.160156 1448.582031 C 925.628906 1454.941406 913.066406 1458.226563 899.40625 1458.226563 C 885.632813 1458.15625 874.171875 1454.207031 865.066406 1446.171875 C 862.203125 1443.550781 859.789063 1441.035156 857.847656 1437.890625 C 856.121094 1434.953125 854.476563 1430.933594 853.1875 1426.144531 C 851.925781 1421.1875 851.296875 1411.820313 851.296875 1398.117188 L 851.328125 1330.671875 L 824.910156 1330.671875 L 824.910156 1327.664063 "/>
<path style=" stroke:none;fill-rule:nonzero;fill:rgb(99.609375%,99.609375%,99.609375%);fill-opacity:1;" d="M 972.980469 1224.851563 L 1002.96875 1224.921875 L 1002.910156 1323.753906 C 1015.480469 1308.339844 1031.03125 1300.652344 1049.730469 1300.652344 C 1059.828125 1300.652344 1068.96875 1303.308594 1076.921875 1308.339844 C 1084.988281 1313.40625 1090.960938 1320.398438 1094.839844 1329.34375 C 1098.808594 1338.183594 1100.679688 1351.570313 1100.679688 1369.183594 L 1100.570313 1455.710938 L 1070.621094 1455.710938 L 1070.691406 1361.773438 C 1070.691406 1350.589844 1067.921875 1341.609375 1062.519531 1334.792969 C 1057.050781 1328.085938 1049.808594 1324.765625 1040.921875 1324.765625 C 1034.308594 1324.765625 1028.128906 1326.339844 1022.28125 1329.832031 C 1016.390625 1333.152344 1010.050781 1338.777344 1002.910156 1346.886719 L 1002.910156 1455.640625 L 972.878906 1455.574219 L 972.980469 1224.851563 "/>
<path style=" stroke:none;fill-rule:nonzero;fill:rgb(99.609375%,99.609375%,99.609375%);fill-opacity:1;" d="M 1272.089844 1382.460938 L 1165.261719 1382.359375 C 1166.121094 1396.929688 1170.929688 1408.496094 1179.871094 1417.097656 C 1188.890625 1425.6875 1200.398438 1429.917969 1214.628906 1429.917969 C 1234.460938 1429.917969 1252.789063 1423.769531 1269.398438 1411.433594 L 1269.398438 1441.035156 C 1260.210938 1447.183594 1251.039063 1451.449219 1241.96875 1454.171875 C 1232.859375 1456.832031 1222.171875 1458.050781 1209.988281 1458.050781 C 1193.238281 1458.050781 1179.730469 1454.664063 1169.371094 1447.601563 C 1159.078125 1440.753906 1150.710938 1431.386719 1144.488281 1419.574219 C 1138.28125 1407.972656 1135.101563 1394.34375 1135.210938 1378.828125 C 1135.210938 1355.761719 1141.808594 1336.960938 1154.859375 1322.457031 C 1167.898438 1308.09375 1185.058594 1300.828125 1205.898438 1300.828125 C 1226.070313 1300.828125 1242.21875 1307.886719 1254.179688 1322.070313 C 1266.210938 1336.019531 1272.148438 1354.925781 1272.089844 1378.652344 Z M 1166.011719 1364.429688 L 1242.460938 1364.539063 C 1241.761719 1352.476563 1238.128906 1343.183594 1231.679688 1336.71875 C 1225.410156 1330.246094 1216.820313 1326.898438 1205.898438 1326.898438 C 1195.25 1326.898438 1186.351563 1330.113281 1179.46875 1336.71875 C 1172.570313 1343.183594 1168.058594 1352.476563 1166.011719 1364.429688 "/>
<path style=" stroke:none;fill-rule:nonzero;fill:rgb(99.609375%,99.609375%,99.609375%);fill-opacity:1;" d="M 1617.921875 1304.074219 L 1650.128906 1304.074219 L 1582.921875 1458.679688 L 1573.320313 1458.679688 L 1528.5 1352.617188 L 1484.03125 1458.507813 L 1474.308594 1458.507813 L 1406.761719 1303.9375 L 1439.050781 1303.9375 L 1478.738281 1396.089844 L 1517.671875 1303.9375 L 1539.859375 1304.074219 L 1578.230469 1396.089844 L 1617.921875 1304.074219 "/>
<path style=" stroke:none;fill-rule:nonzero;fill:rgb(99.609375%,99.609375%,99.609375%);fill-opacity:1;" d="M 1775.351563 1364.8125 L 1775.328125 1429.363281 C 1775.328125 1434.535156 1777.011719 1437.15625 1780.609375 1437.15625 C 1784.230469 1437.15625 1789.921875 1434.535156 1797.558594 1429.046875 L 1797.558594 1447.394531 C 1790.789063 1451.867188 1785.328125 1454.695313 1781.199219 1456.40625 C 1777.011719 1457.949219 1772.660156 1458.679688 1768.238281 1458.679688 C 1755.289063 1458.679688 1747.691406 1453.71875 1745.441406 1443.550781 C 1732.640625 1453.476563 1719 1458.402344 1704.511719 1458.402344 C 1694 1458.402344 1685.289063 1454.941406 1678.179688 1447.746094 C 1671.101563 1440.894531 1667.660156 1432.050781 1667.660156 1421.605469 C 1667.660156 1411.890625 1671.101563 1403.359375 1677.96875 1395.773438 C 1684.859375 1388.402344 1694.640625 1382.359375 1707.320313 1377.921875 L 1745.769531 1364.8125 L 1745.769531 1356.601563 C 1745.769531 1338.464844 1736.628906 1329.34375 1718.398438 1329.34375 C 1701.941406 1329.34375 1685.949219 1337.804688 1670.460938 1354.714844 L 1670.460938 1321.828125 C 1682.238281 1308.09375 1698.921875 1301.171875 1720.921875 1301.171875 C 1737.269531 1301.171875 1750.488281 1305.507813 1760.371094 1314.175781 C 1763.648438 1316.761719 1766.648438 1320.539063 1769.289063 1325.078125 C 1771.988281 1329.691406 1773.621094 1334.164063 1774.300781 1338.777344 C 1775.070313 1343.324219 1775.351563 1351.988281 1775.351563 1364.8125 Z M 1745.710938 1426.144531 L 1745.769531 1381.066406 L 1725.621094 1388.71875 C 1715.429688 1392.808594 1708.210938 1396.789063 1703.921875 1400.917969 C 1699.691406 1405.25 1697.488281 1410.316406 1697.488281 1416.464844 C 1697.488281 1422.652344 1699.519531 1427.71875 1703.570313 1431.777344 C 1707.589844 1435.792969 1712.738281 1437.820313 1719.101563 1437.820313 C 1728.660156 1437.820313 1737.609375 1433.835938 1745.710938 1426.144531 "/>
<path style=" stroke:none;fill-rule:nonzero;fill:rgb(99.609375%,99.609375%,99.609375%);fill-opacity:1;" d="M 1910.101563 1304.253906 L 1943.828125 1304.253906 L 1836 1533.640625 L 1802.398438 1533.640625 L 1854.03125 1423.558594 L 1795.441406 1304.113281 L 1829.800781 1304.179688 L 1870.769531 1390.011719 L 1910.101563 1304.253906 "/>
<path style=" stroke:none;fill-rule:nonzero;fill:rgb(99.609375%,99.609375%,99.609375%);fill-opacity:1;" d="M 2166.949219 1304.390625 L 2200.550781 1304.496094 L 2092.769531 1533.75 L 2059.171875 1533.75 L 2110.808594 1423.734375 L 2052.289063 1304.253906 L 2086.480469 1304.253906 L 2127.570313 1390.328125 L 2166.949219 1304.390625 "/>
<path style=" stroke:none;fill-rule:nonzero;fill:rgb(99.609375%,99.609375%,99.609375%);fill-opacity:1;" d="M 2287.601563 1304.179688 C 2310.738281 1304.179688 2329.929688 1311.621094 2345.210938 1326.683594 C 2360.589844 1341.503906 2368.171875 1360.234375 2368.171875 1383.023438 C 2368.171875 1404.761719 2360.371094 1423 2344.851563 1437.46875 C 2329.289063 1451.867188 2309.699219 1459.066406 2286.171875 1459.066406 C 2263.378906 1459.066406 2244.390625 1451.730469 2229.019531 1437.082031 C 2213.78125 1422.339844 2206.140625 1403.917969 2206.140625 1381.835938 C 2206.140625 1359.816406 2213.921875 1341.191406 2229.351563 1326.339844 C 2244.839844 1311.621094 2264.238281 1304.113281 2287.601563 1304.179688 Z M 2285.941406 1331.300781 C 2271.53125 1331.230469 2259.71875 1336.019531 2250.460938 1345.488281 C 2241.140625 1354.855469 2236.53125 1366.941406 2236.53125 1381.660156 C 2236.53125 1396.089844 2241.191406 1408.046875 2250.648438 1417.234375 C 2260.191406 1426.425781 2272.300781 1430.933594 2287.171875 1430.933594 C 2301.980469 1430.933594 2314.058594 1426.425781 2323.460938 1417.097656 C 2332.878906 1407.832031 2337.609375 1395.882813 2337.609375 1381.378906 C 2337.609375 1366.941406 2332.648438 1354.925781 2322.949219 1345.488281 C 2313.121094 1336.019531 2300.878906 1331.300781 2285.941406 1331.300781 "/>
<path style=" stroke:none;fill-rule:nonzero;fill:rgb(99.609375%,99.609375%,99.609375%);fill-opacity:1;" d="M 2498.28125 1456.550781 L 2498.28125 1437.15625 C 2491.871094 1444.175781 2484.671875 1449.558594 2476.339844 1453.40625 C 2468.140625 1457.320313 2460 1459.277344 2451.871094 1459.277344 C 2442.300781 1459.277344 2433.441406 1456.832031 2425.328125 1452.148438 C 2417.238281 1447.257813 2411.160156 1440.753906 2407.019531 1432.507813 C 2402.949219 1424.332031 2400.851563 1410.664063 2400.851563 1391.617188 L 2400.988281 1304.496094 L 2431.03125 1304.496094 L 2430.941406 1391.269531 C 2430.941406 1407.203125 2433.210938 1418.355469 2437.75 1424.675781 C 2442.300781 1430.933594 2450.269531 1434.21875 2461.828125 1434.21875 C 2476.109375 1434.21875 2488.21875 1427.191406 2498.339844 1413.179688 L 2498.441406 1304.8125 L 2528.480469 1304.8125 L 2528.371094 1456.550781 L 2498.28125 1456.550781 "/>
<path style=" stroke:none;fill-rule:nonzero;fill:rgb(99.609375%,99.609375%,99.609375%);fill-opacity:1;" d="M 2818.589844 1346.539063 L 2818.589844 1456.832031 L 2788.238281 1456.832031 L 2788.289063 1372.1875 C 2788.289063 1355.414063 2786.039063 1343.566406 2781.558594 1336.890625 C 2776.980469 1330.390625 2769.121094 1326.898438 2757.949219 1326.898438 C 2751.609375 1326.898438 2745.808594 1328.328125 2740.640625 1331.230469 C 2735.359375 1334.164063 2729.421875 1339.128906 2722.691406 1346.539063 L 2722.589844 1456.832031 L 2692.570313 1456.761719 L 2692.640625 1304.8125 L 2722.691406 1304.84375 L 2722.691406 1324.765625 C 2737.949219 1309.421875 2753.03125 1301.941406 2767.578125 1301.941406 C 2786.941406 1301.941406 2801.878906 1311.03125 2812.398438 1329.34375 C 2828.5 1310.890625 2845.289063 1301.597656 2862.800781 1301.597656 C 2877.601563 1301.597656 2889.671875 1307.117188 2899.191406 1317.808594 C 2908.699219 1328.644531 2913.398438 1345.105469 2913.398438 1367.191406 L 2913.351563 1456.96875 L 2883.289063 1456.832031 L 2883.359375 1366.804688 C 2883.359375 1354.15625 2880.789063 1344.511719 2875.640625 1337.804688 C 2870.519531 1331.058594 2863.078125 1327.664063 2853.390625 1327.664063 C 2840.96875 1327.664063 2829.320313 1333.886719 2818.589844 1346.539063 "/>
<path style=" stroke:none;fill-rule:nonzero;fill:rgb(99.609375%,99.609375%,99.609375%);fill-opacity:1;" d="M 3058.410156 1365.617188 L 3058.410156 1430.132813 C 3058.410156 1435.441406 3060.140625 1437.957031 3063.621094 1437.957031 C 3067.28125 1437.957031 3072.980469 1435.339844 3080.671875 1429.917969 L 3080.671875 1448.304688 C 3073.769531 1452.5625 3068.300781 1455.710938 3064.179688 1457.320313 C 3060.039063 1458.855469 3055.808594 1459.695313 3051.28125 1459.695313 C 3038.410156 1459.695313 3030.730469 1454.523438 3028.519531 1444.460938 C 3015.691406 1454.28125 3002.058594 1459.277344 2987.648438 1459.277344 C 2977.078125 1459.277344 2968.230469 1455.710938 2961.210938 1448.757813 C 2954.179688 1441.800781 2950.699219 1433.132813 2950.699219 1422.511719 C 2950.699219 1412.722656 2954.128906 1404.234375 2961.03125 1396.722656 C 2967.878906 1389.140625 2977.71875 1383.128906 2990.371094 1378.828125 L 3028.808594 1365.511719 L 3028.878906 1357.542969 C 3028.878906 1339.128906 3019.710938 1330.113281 3001.378906 1330.113281 C 2985.039063 1330.113281 2969.109375 1338.636719 2953.550781 1355.484375 L 2953.550781 1322.632813 C 2965.238281 1308.863281 2982.019531 1302.050781 3003.96875 1302.050781 C 3020.351563 1302.050781 3033.480469 1306.3125 3043.371094 1314.910156 C 3046.671875 1317.707031 3049.691406 1321.371094 3052.328125 1325.917969 C 3054.921875 1330.53125 3056.769531 1335.074219 3057.398438 1339.6875 C 3058.050781 1344.160156 3058.410156 1352.96875 3058.410156 1365.617188 Z M 3028.808594 1426.988281 L 3028.808594 1381.835938 L 3008.609375 1389.558594 C 2998.480469 1393.640625 2991.160156 1397.632813 2986.960938 1401.820313 C 2982.628906 1406.015625 2980.660156 1411.050781 2980.660156 1417.234375 C 2980.660156 1423.628906 2982.578125 1428.804688 2986.601563 1432.683594 C 2990.648438 1436.632813 2995.769531 1438.691406 3002.238281 1438.691406 C 3011.761719 1438.691406 3020.648438 1434.605469 3028.808594 1426.988281 "/>
<path style=" stroke:none;fill-rule:nonzero;fill:rgb(99.609375%,99.609375%,99.609375%);fill-opacity:1;" d="M 3109.160156 1226.179688 L 3139.191406 1226.355469 L 3139 1457.003906 L 3108.878906 1457.003906 Z M 3208 1305.230469 L 3243.71875 1305.230469 L 3178.890625 1379.457031 L 3256.789063 1457.003906 L 3216.460938 1457.003906 L 3140.429688 1379.5625 L 3208 1305.230469 "/>
<path style=" stroke:none;fill-rule:nonzero;fill:rgb(99.609375%,99.609375%,99.609375%);fill-opacity:1;" d="M 3390.359375 1383.894531 L 3283.609375 1383.789063 C 3284.289063 1398.296875 3289.199219 1409.933594 3298.238281 1418.421875 C 3307.148438 1427.128906 3318.710938 1431.386719 3332.898438 1431.386719 C 3352.75 1431.460938 3371.03125 1425.234375 3387.71875 1412.9375 L 3387.71875 1442.363281 C 3378.53125 1448.582031 3369.359375 1452.917969 3360.21875 1455.433594 C 3351.078125 1458.15625 3340.539063 1459.554688 3328.328125 1459.554688 C 3311.570313 1459.554688 3297.96875 1455.957031 3287.679688 1449.074219 C 3277.300781 1442.152344 3269.039063 1432.75 3262.890625 1421.042969 C 3256.628906 1409.300781 3253.488281 1395.742188 3253.488281 1380.363281 C 3253.488281 1357.234375 3260.078125 1338.464844 3273.230469 1323.890625 C 3286.371094 1309.421875 3303.371094 1302.296875 3324.359375 1302.296875 C 3344.449219 1302.296875 3360.53125 1309.421875 3372.53125 1323.472656 C 3384.46875 1337.589844 3390.359375 1356.390625 3390.359375 1380.019531 Z M 3284.289063 1365.753906 L 3360.730469 1365.867188 C 3359.988281 1353.808594 3356.421875 1344.578125 3350 1338.078125 C 3343.671875 1331.648438 3335.050781 1328.328125 3324.328125 1328.328125 C 3313.46875 1328.328125 3304.671875 1331.648438 3297.730469 1338.078125 C 3290.859375 1344.511719 3286.371094 1353.734375 3284.289063 1365.753906 "/>
<path style=" stroke:none;fill-rule:nonzero;fill:rgb(99.609375%,99.609375%,99.609375%);fill-opacity:1;" d="M 3678.960938 1347.097656 L 3678.960938 1457.425781 L 3648.71875 1457.425781 L 3648.808594 1372.816406 C 3648.808594 1355.933594 3646.550781 1344.160156 3642.03125 1337.589844 C 3637.519531 1330.878906 3629.679688 1327.664063 3618.511719 1327.457031 C 3612.128906 1327.457031 3606.398438 1328.890625 3601.179688 1331.789063 C 3595.898438 1334.585938 3589.941406 1339.757813 3583.199219 1347.027344 L 3583.121094 1457.320313 L 3553.070313 1457.320313 L 3553.199219 1305.371094 L 3583.261719 1305.371094 L 3583.261719 1325.328125 C 3598.519531 1310.050781 3613.488281 1302.472656 3628.160156 1302.472656 C 3647.46875 1302.472656 3662.351563 1311.621094 3672.921875 1329.832031 C 3688.941406 1311.449219 3705.820313 1302.296875 3723.320313 1302.296875 C 3738.128906 1302.296875 3750.28125 1307.601563 3759.75 1318.300781 C 3769.179688 1329.273438 3774.03125 1345.660156 3773.929688 1367.714844 L 3773.929688 1457.53125 L 3743.941406 1457.53125 L 3743.941406 1367.46875 C 3743.941406 1354.785156 3741.328125 1345.105469 3736.160156 1338.464844 C 3731.078125 1331.648438 3723.628906 1328.1875 3713.96875 1328.1875 C 3701.539063 1328.1875 3689.800781 1334.515625 3678.960938 1347.097656 "/>
<path style=" stroke:none;fill-rule:nonzero;fill:rgb(99.609375%,99.609375%,99.609375%);fill-opacity:1;" d="M 3944.738281 1384.28125 L 3837.910156 1384.136719 C 3838.679688 1398.679688 3843.511719 1410.316406 3852.511719 1418.839844 C 3861.5 1427.546875 3873.03125 1431.777344 3887.21875 1431.777344 C 3907.121094 1431.777344 3925.398438 1425.621094 3942.03125 1413.425781 L 3942.03125 1442.640625 C 3932.871094 1449 3923.679688 1453.261719 3914.539063 1455.921875 C 3905.53125 1458.507813 3894.898438 1459.835938 3882.601563 1459.835938 C 3865.859375 1459.835938 3852.320313 1456.40625 3842 1449.417969 C 3831.628906 1442.5 3823.28125 1433.132813 3817.109375 1421.394531 C 3810.910156 1409.722656 3807.820313 1396.023438 3807.910156 1380.648438 C 3807.910156 1357.542969 3814.351563 1338.777344 3827.550781 1324.308594 C 3840.609375 1309.84375 3857.628906 1302.644531 3878.589844 1302.644531 C 3898.730469 1302.644531 3914.75 1309.703125 3926.808594 1323.753906 C 3938.800781 1337.867188 3944.769531 1356.878906 3944.738281 1380.433594 Z M 3838.570313 1366.179688 L 3915.03125 1366.246094 C 3914.320313 1354.226563 3910.679688 1345.105469 3904.339844 1338.535156 C 3897.960938 1331.964844 3889.398438 1328.644531 3878.589844 1328.644531 C 3867.75 1328.644531 3858.980469 1331.964844 3852.03125 1338.535156 C 3845.140625 1344.859375 3840.699219 1354.15625 3838.570313 1366.179688 "/>
<path style=" stroke:none;fill-rule:nonzero;fill:rgb(99.609375%,99.609375%,99.609375%);fill-opacity:1;" d="M 4111.859375 1305.71875 L 4111.859375 1296.667969 C 4111.890625 1272.167969 4117.011719 1253.996094 4127.410156 1242.046875 C 4137.878906 1229.953125 4150.328125 1223.976563 4164.890625 1223.976563 C 4171.140625 1223.976563 4178.679688 1225.023438 4187.25 1226.945313 L 4187.25 1256.375 C 4182.398438 1254.628906 4177.761719 1253.753906 4173.410156 1253.753906 C 4161.550781 1253.753906 4153.359375 1256.898438 4148.78125 1263.085938 C 4144.179688 1269.378906 4141.929688 1280.660156 4141.929688 1296.667969 L 4141.929688 1305.71875 L 4168.980469 1305.71875 L 4168.980469 1332.835938 L 4141.929688 1332.800781 L 4141.769531 1457.667969 L 4111.75 1457.667969 L 4111.859375 1332.800781 L 4090.050781 1332.769531 L 4090.050781 1305.644531 L 4111.859375 1305.71875 "/>
<path style=" stroke:none;fill-rule:nonzero;fill:rgb(99.609375%,99.609375%,99.609375%);fill-opacity:1;" d="M 4319.089844 1384.382813 L 4212.261719 1384.382813 C 4212.921875 1398.957031 4217.828125 1410.488281 4226.730469 1419.054688 C 4235.800781 1427.71875 4247.359375 1432.050781 4261.519531 1432.050781 C 4281.398438 1432.050781 4299.648438 1425.863281 4316.378906 1413.496094 L 4316.378906 1442.851563 C 4307.121094 1449.074219 4298 1453.578125 4288.921875 1456.132813 C 4279.800781 1458.679688 4269.171875 1460.148438 4256.921875 1460.148438 C 4240.128906 1460.148438 4226.640625 1456.550781 4216.300781 1449.632813 C 4205.878906 1442.640625 4197.628906 1433.378906 4191.429688 1421.710938 C 4185.28125 1409.933594 4182.148438 1396.335938 4182.148438 1380.855469 C 4182.148438 1357.792969 4188.671875 1339.023438 4201.851563 1324.519531 C 4214.921875 1310.050781 4231.941406 1302.925781 4252.878906 1302.925781 C 4273 1302.925781 4289.140625 1309.980469 4301.160156 1323.960938 C 4313.058594 1338.078125 4319.109375 1356.917969 4319.089844 1380.648438 Z M 4212.851563 1366.492188 L 4289.320313 1366.492188 C 4288.621094 1354.433594 4285.070313 1345.210938 4278.570313 1338.710938 C 4272.261719 1332.207031 4263.671875 1328.890625 4252.878906 1328.855469 C 4242.070313 1328.855469 4233.238281 1332.207031 4226.328125 1338.710938 C 4219.550781 1345.105469 4215 1354.433594 4212.851563 1366.492188 "/>
<path style=" stroke:none;fill-rule:nonzero;fill:rgb(99.609375%,99.609375%,99.609375%);fill-opacity:1;" d="M 4481.039063 1384.492188 L 4374.261719 1384.492188 C 4375.011719 1399.101563 4379.890625 1410.5625 4388.828125 1419.15625 C 4397.828125 1427.71875 4409.339844 1432.050781 4423.621094 1432.050781 C 4443.449219 1432.050781 4461.621094 1425.863281 4478.46875 1413.667969 L 4478.46875 1443.097656 C 4469.160156 1449.28125 4459.949219 1453.683594 4450.878906 1456.273438 C 4441.820313 1458.960938 4431.121094 1460.253906 4418.96875 1460.148438 C 4402.199219 1460.148438 4388.671875 1456.761719 4378.261719 1449.699219 C 4367.980469 1442.851563 4359.679688 1433.484375 4353.480469 1421.8125 C 4347.238281 1410.035156 4344.199219 1396.472656 4344.199219 1381.066406 C 4344.21875 1357.996094 4350.761719 1339.058594 4363.820313 1324.765625 C 4377 1310.332031 4394.019531 1302.925781 4414.929688 1302.925781 C 4435.058594 1302.925781 4451.160156 1310.050781 4463.089844 1324.140625 C 4475.078125 1338.183594 4481.039063 1357.128906 4481.039063 1380.855469 Z M 4374.878906 1366.492188 L 4451.398438 1366.523438 C 4450.558594 1354.609375 4447.089844 1345.28125 4440.671875 1338.777344 C 4434.238281 1332.347656 4425.628906 1329.058594 4414.929688 1329.058594 C 4404.070313 1329.058594 4395.238281 1332.347656 4388.359375 1338.777344 C 4381.460938 1345.28125 4377.050781 1354.609375 4374.878906 1366.492188 "/>
<path style=" stroke:none;fill-rule:nonzero;fill:rgb(99.609375%,99.609375%,99.609375%);fill-opacity:1;" d="M 4514.449219 1227.226563 L 4544.480469 1227.226563 L 4544.359375 1457.949219 L 4514.25 1457.808594 L 4514.449219 1227.226563 "/>
</g>
</svg>
