<svg width="174" height="40" viewBox="0 0 174 40" fill="none" xmlns="http://www.w3.org/2000/svg">
<g clip-path="url(#clip0_402_51503)">
<path d="M65.6 14.5C64.6 14.5 63.6 14.8 62.8 15.3C62.4 15.5 62 15.8 61.7 16.2V16.1L61.3 16.6C61.2 16.7 61.1 16.8 61.1 16.9C60.7 16.2 60.1 15.7 59.4 15.3C58.8 14.9 58 14.6 57.3 14.6L56.8 14.5C56.7 14.5 56.6 14.5 56.5 14.5C55 14.5 53.6 15.1 52.6 16.1C51.6 17.1 51 18.5 51 20V27C51 27.5 51.4 27.9 51.9 27.9C52.2 27.9 52.4 27.8 52.6 27.6C52.8 27.4 52.9 27.2 52.9 27V20C52.9 19 53.3 18.1 54 17.4C54.6 16.7 55.6 16.3 56.5 16.3C56.7 16.3 57 16.3 57.2 16.4C57.9 16.5 58.5 16.9 59 17.4C59.7 18.1 60.1 19 60.1 20V27.1V27.2C60.2 27.4 60.3 27.6 60.5 27.7C60.5 27.7 60.5 27.7 60.6 27.7H60.7L60.9 27.8H61.3L61.5 27.7H61.6C61.6 27.7 61.6 27.7 61.7 27.7C61.9 27.6 62 27.4 62.1 27.2V27.1V20C62.1 19 62.5 18.1 63.2 17.4C64.5 16 66.8 16 68.1 17.3L68.2 17.4C68.9 18.1 69.3 19 69.3 20V27C69.3 27.2 69.4 27.5 69.6 27.6C69.8 27.8 70 27.9 70.3 27.9C70.6 27.9 70.8 27.8 71 27.6C71.2 27.4 71.3 27.2 71.3 26.9V19.9C71.3 18.4 70.7 17 69.7 16C68.4 15.1 67.1 14.5 65.6 14.5ZM81.4 14.5C79.7 14.5 78.1 15.2 76.9 16.5C74.4 19.2 74.4 23.3 76.9 26C79.1 28.5 82.9 28.7 85.4 26.5C85.6 26.4 85.7 26.2 85.9 26C88.4 23.3 88.4 19.2 85.9 16.5C84.8 15.2 83.1 14.5 81.4 14.5ZM81.4 26.1C80.2 26.1 79.1 25.6 78.3 24.7C76.5 22.8 76.5 19.8 78.3 17.8C79.8 16.1 82.4 15.9 84.1 17.4C84.2 17.5 84.4 17.7 84.5 17.8C86.3 19.7 86.3 22.7 84.5 24.7C83.8 25.6 82.6 26.1 81.4 26.1ZM98.3 14.5C97.3 14.5 96.3 14.7 95.4 15.2C94.8 15.5 94.2 15.9 93.8 16.4V10C93.8 9.7 93.7 9.5 93.5 9.3C93.3 9.1 93.1 9 92.8 9C92.5 9 92.3 9.1 92.1 9.3C92 9.5 91.9 9.7 91.9 10V21.2C91.9 23 92.5 24.7 93.8 26C94 26.2 94.2 26.4 94.4 26.6C94.6 26.8 94.8 26.9 95 27C95.2 27.1 95.3 27.2 95.5 27.3C98 28.6 101 28.1 103 26C105.5 23.3 105.5 19.2 103 16.5C101.7 15.2 100.1 14.5 98.3 14.5ZM98.3 26C97.4 26 96.5 25.7 95.8 25.2C95.6 25 95.3 24.8 95.1 24.6C94.2 23.7 93.7 22.4 93.8 21.1V21C93.8 19.8 94.3 18.6 95.2 17.7C96 16.8 97.2 16.3 98.4 16.4C99.6 16.4 100.8 16.9 101.6 17.8C103.4 19.7 103.4 22.7 101.6 24.6C100.7 25.6 99.6 26.1 98.3 26ZM109.9 14.5C109.4 14.5 108.9 14.9 108.9 15.4V27C108.9 27.3 109 27.5 109.2 27.7C109.4 27.9 109.6 28 109.9 28C110.2 28 110.4 27.9 110.6 27.7C110.8 27.5 110.9 27.3 110.9 27V15.5C110.9 14.9 110.5 14.5 109.9 14.5C110 14.5 110 14.5 109.9 14.5ZM122 14.5C120.3 14.5 118.7 15.2 117.5 16.5C115 19.2 115 23.3 117.5 26C119.7 28.5 123.5 28.7 126 26.5C126.2 26.4 126.3 26.2 126.5 26C129 23.3 129 19.2 126.5 16.5C125.3 15.2 123.7 14.5 122 14.5ZM122 26.1C120.8 26.1 119.7 25.6 118.9 24.7C117.1 22.8 117.1 19.8 118.9 17.8C120.4 16.1 123 15.9 124.7 17.4C124.8 17.5 125 17.7 125.1 17.8C126.9 19.7 126.9 22.7 125.1 24.7C124.3 25.6 123.2 26.1 122 26.1ZM136.6 14.5H135.3V10.1C135.3 9.8 135.2 9.6 135 9.4C134.8 9.2 134.6 9.1 134.3 9.1C133.8 9.1 133.4 9.5 133.3 10.1V14.5H132C131.6 14.4 131.2 14.7 131.1 15.1C131.1 15.2 131.1 15.4 131.1 15.5C131.1 15.7 131.1 15.9 131.3 16.1C131.5 16.3 131.8 16.4 132.1 16.4H133.4V25.4C133.4 26.8 134.4 27.9 135.8 28H135.9C136.1 28 136.4 27.9 136.6 27.7C136.8 27.5 136.9 27.3 136.9 27C136.9 26.7 136.8 26.5 136.6 26.3C136.4 26.1 136.2 26 135.9 26C135.8 26 135.6 25.9 135.5 25.8C135.4 25.7 135.3 25.5 135.3 25.4V16.4H136.6C136.8 16.4 137.1 16.3 137.3 16.1C137.7 15.8 137.7 15.2 137.3 14.8C137 14.6 136.8 14.5 136.6 14.5ZM143.8 14.5C143.3 14.5 142.8 14.9 142.8 15.4V27C142.8 27.3 142.9 27.5 143.1 27.7C143.3 27.9 143.5 28 143.8 28C144.1 28 144.3 27.9 144.5 27.7C144.7 27.5 144.8 27.3 144.8 27V15.5C144.7 14.9 144.3 14.5 143.8 14.5ZM159.1 25C158.2 25.7 157 26.1 155.8 26.1C153.1 26.1 151 23.9 151 21.2C151 19.9 151.5 18.7 152.4 17.8C153.3 16.9 154.5 16.4 155.7 16.4C156.9 16.4 158 16.8 159 17.5C159.4 17.8 159.9 17.8 160.2 17.4C160.2 17.4 160.2 17.4 160.2 17.3C160.4 17.1 160.5 16.8 160.4 16.6C160.4 16.3 160.2 16.1 160 16C158.7 15 157.2 14.5 155.6 14.5C151.9 14.6 148.9 17.6 149 21.3C149 23.1 149.7 24.7 151 26C152.3 27.3 154 28 155.9 28C157.4 28 158.9 27.5 160.1 26.6C160.3 26.4 160.5 26.2 160.5 25.9C160.5 25.6 160.4 25.4 160.3 25.2C160.1 24.8 159.6 24.7 159.1 25ZM172.4 21.2C171.4 20.6 170.3 20.3 169.2 20.1H169.1C168.2 20 167.4 19.7 166.7 19.3C166.3 19.1 166.1 18.7 166.1 18.2C166.2 17.7 166.4 17.3 166.8 17C167.4 16.6 168.2 16.3 169 16.4C169.4 16.4 169.7 16.5 170.1 16.6C170.4 16.7 170.7 16.8 171 17C171.2 17.1 171.5 17.3 172 17.6C172.2 17.7 172.5 17.8 172.7 17.7C172.9 17.7 173.2 17.5 173.3 17.3C173.4 17.1 173.5 16.8 173.4 16.6C173.4 16.4 173.2 16.1 173 16C172.5 15.7 172.2 15.5 171.9 15.3C171.5 15.1 171.1 14.9 170.7 14.8C170.2 14.6 169.6 14.5 169.1 14.5C167.9 14.5 166.8 14.8 165.8 15.4C164.9 16 164.3 17.1 164.3 18.2C164.3 19.3 164.9 20.3 165.8 20.8C166.7 21.3 167.7 21.7 168.7 21.8H168.8C169.7 21.9 170.6 22.2 171.4 22.7C171.8 23 172.1 23.5 172.1 24C172.1 24.5 171.8 25 171.3 25.3C170.6 25.8 169.8 26.1 168.9 26C167.6 25.9 166.4 25.4 165.4 24.6C165.2 24.4 165 24.3 164.7 24.4C164.4 24.4 164.2 24.6 164.1 24.8C163.8 25.2 163.8 25.7 164.1 26C164.1 26 164.2 26 164.2 26.1C165.6 27.3 167.3 28 169.1 28C170.3 28 171.5 27.6 172.5 26.9C173.5 26.2 174 25.2 174 24C174 22.8 173.4 21.7 172.4 21.2ZM110 11C109.5 11 109 11.4 109 12C109 12.5 109.4 13 110 13C110.6 13 111 12.6 111 12C110.9 11.4 110.5 11 110 11ZM143.8 12.9C144.3 12.9 144.8 12.5 144.8 11.9C144.8 11.4 144.4 10.9 143.8 10.9C143.2 10.9 142.8 11.3 142.8 11.9C142.8 12.5 143.2 12.9 143.8 12.9Z" fill="#63666A"/>
<path d="M0 1.49999C0 1.29999 0 1.19999 0.1 1.09999C5.3 -1.60001 12.1 0.399992 12.1 9.49999C12.1 18.8 12.1 27.2 12.1 31.6C12.1 35.8 14.8 37.4 15 37.5C12.2 40.1 1 43.9 1 29.6C1 21.5 1 13.8 1 9.69999C1 5.69999 1 3.99999 0 1.49999Z" fill="#DA1A5D"/>
<path d="M19.7 4.70001C23 4.70001 26 7.10001 26 12.6C26 20.3 26 25.5 26 29.1C26 32.6 28.2 33.9 28.4 34C25.9 36.3 16.8 38 16.8 27.5C16.8 20.8 16.8 16.2 16.8 12.8C16.8 9.40001 16.8 8.10001 16 5.90001C16.9 5.10001 18.4 4.70001 19.7 4.70001Z" fill="#457ABD"/>
<path d="M32.9 10.1C35.8 10 38.5 12.1 38.4 17C38.2 23.5 38.2 23.5 38 26.5C37.9 29.4 39.7 30.5 39.8 30.6C38.3 33.4 30 33.6 30.3 24.8C30.5 19.1 30.5 19.6 30.6 16.8C30.7 14 30.8 12.8 30.1 10.9C30.7 10.4 32.1 10.2 32.9 10.1Z" fill="#AACF37"/>
</g>
<defs>
<clipPath id="clip0_402_51503">
<rect width="174" height="40" fill="white"/>
</clipPath>
</defs>
</svg>
